<svg width="132" height="132" viewBox="0 0 132 132" fill="none" xmlns="http://www.w3.org/2000/svg" xmlns:xlink="http://www.w3.org/1999/xlink">
<path d="M122.47,72.468L60.826,108.134C58.212,109.639 55.018,109.639 52.404,108.134L9.108,83.266C7.286,82.21 6.653,79.86 7.709,78.038C8.052,77.458 8.527,76.956 9.108,76.639L73.55,39.415L122.417,66.581C124.054,67.478 124.661,69.538 123.737,71.174C123.446,71.702 122.998,72.151 122.47,72.468Z" fill="#FF8E31"/>
<path d="M63.254,33.924C62.938,33.686 62.594,33.475 62.225,33.317C61.169,32.789 60.878,32.208 61.301,31.099C62.146,28.882 59.03,24.71 56.522,25.714C54.938,26.347 53.645,28.142 53.117,29.726C52.879,30.413 52.853,31.152 53.011,31.865C53.17,32.446 53.882,33.053 53.222,33.528C52.087,34.346 50.318,34.663 49.896,36.221C49.764,36.643 49.843,37.118 50.054,37.488C50.398,37.937 50.899,38.227 51.454,38.28C52.43,38.438 52.114,38.57 51.902,39.336C51.295,41.474 53.434,42.108 55.15,42.346C57.262,42.61 59.875,42.847 61.855,41.818C62.436,41.527 63.017,41.026 63.043,40.313C63.07,39.6 61.961,38.887 62.251,38.148C62.33,37.963 62.489,37.805 62.647,37.699C63.228,37.224 64.02,36.828 64.231,36.036C64.442,35.112 63.914,34.426 63.254,33.924Z" fill="#7EC971"/>
<path d="M55.915,39.626C54.886,38.65 53.513,38.412 52.14,38.465C52.166,38.491 52.166,38.544 52.166,38.57C52.166,38.597 52.166,38.623 52.166,38.676L52.166,38.702C53.46,38.65 54.78,38.861 55.757,39.811C56.496,40.55 56.998,41.501 57.182,42.53L57.42,42.53C57.209,41.422 56.681,40.418 55.915,39.626Z" fill="#653200"/>
<path d="M58.608,40.366C58.476,40.577 58.344,40.788 58.212,40.999C58.265,40.207 58.344,39.442 58.423,38.676C58.582,38.122 58.793,37.594 59.057,37.092C59.426,36.353 59.928,35.693 60.535,35.165C61.301,34.558 62.146,34.109 63.07,33.818C62.99,33.792 62.938,33.739 62.858,33.686L62.806,33.66C61.222,34.267 59.928,35.112 59.03,36.643C58.846,36.96 58.687,37.277 58.555,37.62C58.634,37.118 58.687,36.59 58.793,36.089C59.189,33.713 59.849,31.337 61.354,29.436C61.327,29.33 61.301,29.251 61.274,29.146C59.717,31.046 59.004,33.422 58.608,35.825C58.45,36.775 58.318,37.699 58.212,38.65C58.344,34.346 58.344,30.017 58.133,25.714C58.054,25.687 57.974,25.661 57.895,25.634C58.08,29.542 58.106,33.449 58.001,37.33C57.948,37.33 57.895,37.382 57.869,37.409C57.79,36.775 57.71,36.168 57.578,35.534C57.05,33.079 55.968,30.017 53.46,28.934L53.434,28.987L53.354,29.146C55.889,30.254 56.918,33.475 57.42,35.983C57.578,36.854 57.684,37.752 57.737,38.65C57.658,39.521 57.631,40.418 57.578,41.29C57.367,39.943 56.998,38.623 56.443,37.382C55.81,35.957 54.542,33.924 52.8,33.766C52.642,33.871 52.457,33.95 52.272,34.003C54.41,33.686 55.889,36.538 56.496,38.201C56.998,39.574 57.341,41.026 57.499,42.478L57.526,42.478C57.499,45.408 57.658,48.312 58.054,51.216C58.08,51.454 58.476,51.48 58.45,51.216C58.054,48.312 57.895,45.408 57.922,42.478L58.08,42.478C58.08,42.187 58.106,41.87 58.133,41.554C58.265,41.29 58.423,41.026 58.582,40.762C59.057,39.97 59.69,39.31 60.456,38.808C61.01,38.518 61.591,38.306 62.225,38.201C62.225,38.095 62.278,38.016 62.33,37.937C61.697,38.042 61.09,38.227 60.535,38.518C59.743,38.993 59.083,39.6 58.608,40.366Z" fill="#653200"/>
<path d="M57.685,52.431C59.45,52.431 60.88,51.143 60.88,49.554C60.88,47.965 59.45,46.676 57.685,46.676C55.921,46.676 54.491,47.965 54.491,49.554C54.491,51.143 55.921,52.431 57.685,52.431Z" transform="rotate(-3.34 57.685 49.554)" fill="#FCC62D"/>
<path d="M64.812,52.483L41.897,66.686C41.237,67.109 41.026,67.98 41.448,68.64C41.58,68.851 41.738,69.01 41.95,69.115L76.745,88.783C77.722,89.338 78.936,89.338 79.913,88.757L102.722,75.346C104.386,73.999 104.254,71.412 102.722,71.306L68.138,52.404C67.082,51.85 65.815,51.876 64.812,52.483Z" fill="#1CA9B7"/>
<path d="M64.812,51.506L41.897,65.71C41.237,66.132 41.026,67.003 41.448,67.663C41.58,67.874 41.738,68.033 41.95,68.138L76.745,87.78C77.722,88.334 78.936,88.334 79.913,87.754L102.722,74.342C103.567,73.841 103.858,72.785 103.356,71.94C103.198,71.676 102.986,71.465 102.722,71.306L68.138,51.427C67.082,50.846 65.815,50.873 64.812,51.506Z" fill="#FFFFFF"/>
<path d="M65.736,49.579C65.736,49.579 75.266,18.85 75.214,18.85C75.161,18.85 75.504,17.477 77.194,18.269L113.705,39.758C113.705,39.758 115.474,40.471 115.131,42.134C114.787,43.798 105.838,72.204 105.838,72.204C105.442,72.758 104.755,72.996 104.122,72.785C103.013,72.442 66.607,51.295 66.607,51.295C65.894,51.031 65.525,50.292 65.736,49.579Z" fill="#053855"/>
<path d="M63.835,68.93L74.342,74.844C74.844,75.134 75.029,75.768 74.738,76.27C74.659,76.428 74.501,76.56 74.342,76.666L68.191,80.282C67.769,80.52 67.214,80.52 66.792,80.282L56.047,74.158C55.625,73.92 55.466,73.392 55.73,72.97C55.81,72.838 55.915,72.732 56.047,72.653L62.462,68.957C62.885,68.693 63.413,68.693 63.835,68.93Z" fill="#3CAC6E"/>
<path d="M63.386,54.78L55.018,60.007C54.542,60.298 54.41,60.931 54.701,61.406C54.78,61.538 54.912,61.67 55.044,61.75L85.114,78.91C86.038,79.438 87.147,79.438 88.071,78.91C89.998,77.774 93.324,75.742 95.383,74.501C95.964,74.158 96.175,73.392 95.806,72.811C95.7,72.626 95.542,72.468 95.357,72.362C89.285,68.825 69.432,57.288 65.076,54.754C64.574,54.437 63.914,54.437 63.386,54.78Z" fill="#3CAC6E"/>
<path d="M50.952,83.952L50.53,83.635L50.899,78.593L53.117,78.672C53.117,78.672 53.011,80.81 53.486,81.338C53.962,81.866 55.282,81.602 55.414,81.655C55.546,81.708 56.417,81.523 56.786,81.946C57.156,82.368 55.334,83.398 54.41,83.556C53.777,83.635 53.143,83.609 52.51,83.503C52.51,83.503 52.404,82.21 52.087,82.315C51.77,82.421 51.638,83.767 51.638,83.767L50.952,83.952Z" fill="#053855"/>
<path d="M50.054,68.112C49.87,73.392 49.685,80.256 49.685,80.256C49.685,80.256 50.873,81.893 54.146,81.18C54.49,81.101 55.282,72.706 55.651,68.35C53.83,67.848 51.902,67.769 50.054,68.112Z" fill="#7EC971"/>
<path d="M56.734,88.282L56.311,87.965L56.681,82.922L58.898,83.002C58.898,83.002 58.793,85.14 59.268,85.668C59.743,86.196 61.063,85.932 61.195,85.985C61.327,86.038 62.198,85.853 62.568,86.275C62.938,86.698 61.116,87.727 60.192,87.886C59.558,87.965 58.925,87.938 58.291,87.833C58.291,87.833 58.186,86.539 57.869,86.645C57.552,86.75 57.42,88.097 57.42,88.097L56.734,88.282Z" fill="#053855"/>
<path d="M57.684,69.062C56.232,68.402 54.648,68.006 53.064,67.901C53.328,69.881 53.592,71.227 53.618,71.333C53.724,71.57 55.757,84.11 55.757,84.11C58.133,85.061 60.984,84.269 60.984,84.269C60.984,84.269 60.007,74.501 59.928,72.864C59.928,72.679 59.928,72.521 59.902,72.336C59.822,70.91 58.978,69.643 57.684,69.062Z" fill="#7EC971"/>
<path d="M42.979,71.966C42.979,71.966 47.045,68.297 50.054,68.112C53.064,67.927 57.367,71.042 57.05,72.864C56.734,74.686 50.926,78.593 50.926,78.593Z" fill="#7EC971"/>
<path d="M51.269,65.419L48.048,63.122C47.784,62.938 47.678,62.568 47.81,62.278L50.107,57.182C50.266,56.839 50.662,56.681 51.005,56.839L51.084,56.892L54.674,59.136C54.991,59.321 55.097,59.717 54.912,60.034L52.272,65.155C52.114,65.498 51.691,65.63 51.348,65.472L51.269,65.419Z" fill="#053855"/>
<path d="M50.978,65.234L47.731,62.938C47.467,62.753 47.362,62.383 47.494,62.093L49.79,57.024C49.949,56.681 50.345,56.522 50.688,56.681C50.714,56.681 50.741,56.707 50.767,56.734L54.384,58.978C54.701,59.162 54.806,59.558 54.622,59.875L51.955,64.997C51.77,65.34 51.374,65.446 51.031,65.287L50.978,65.234Z" fill="#3CAC6E"/>
<path d="M51.506,64.918L47.89,62.357L50.266,57.05L54.305,59.558L51.506,64.918Z" fill="#FFFFFF"/>
<path d="M49.843,59.294C48.655,59.954 46.754,60.694 45.487,61.565C45.276,61.697 44.986,62.198 45.17,62.119C45.091,62.225 45.91,62.542 45.83,62.647C45.804,62.674 46.358,62.383 46.385,62.383C46.86,62.647 47.414,62.7 47.942,62.568L48.154,62.41L48.206,62.383C48.206,62.357 48.233,62.357 48.233,62.357L48.259,62.33C48.259,62.304 48.286,62.278 48.312,62.251C48.602,62.04 49.21,61.908 49.262,61.538C49.262,61.433 49.21,61.354 49.183,61.248C49.157,61.195 49.157,61.142 49.21,61.116C49.262,60.905 49.21,60.667 49.078,60.482L49.157,60.403C49.5,60.166 49.817,59.902 50.107,59.611C50.134,59.585 50.16,59.532 50.16,59.506L50.16,59.453C50.134,59.321 50.028,59.242 49.896,59.268C49.896,59.268 49.87,59.268 49.843,59.294Z" fill="#E85454"/>
<path d="M49.236,60.588C49.13,60.35 48.998,60.35 48.814,60.43C48.391,60.614 47.995,60.852 47.626,61.116C47.573,61.169 47.626,61.248 47.678,61.222C47.916,61.063 48.919,60.324 49.13,60.641C49.342,60.958 48.655,61.195 48.47,61.301L47.731,61.697C47.678,61.723 47.731,61.829 47.784,61.802L48.259,61.565L48.259,61.591C48.286,61.644 48.338,61.697 48.391,61.723C48.312,61.855 48.286,62.014 48.338,62.146L48.365,62.172C47.942,62.594 47.309,62.7 46.781,62.41C46.728,62.357 46.649,62.436 46.702,62.489C47.177,62.858 48.154,62.753 48.497,62.225C48.576,62.225 48.655,62.198 48.708,62.146C48.919,62.066 49.13,61.934 49.262,61.776C49.342,61.618 49.342,61.433 49.262,61.301L49.262,61.274C49.368,61.169 49.368,60.984 49.262,60.852C49.289,60.773 49.262,60.694 49.236,60.588ZM49.183,61.67C49.104,61.776 48.998,61.882 48.866,61.934C48.787,61.987 48.602,62.119 48.523,62.093C48.365,62.066 48.47,61.855 48.523,61.776C48.602,61.75 48.682,61.697 48.761,61.644L49.051,61.459L49.157,61.38C49.183,61.459 49.21,61.591 49.183,61.67ZM48.814,61.459C48.655,61.565 48.523,61.697 48.365,61.512C48.602,61.406 48.84,61.274 49.051,61.142C49.13,61.116 49.183,61.063 49.21,60.984C49.315,61.195 48.919,61.38 48.814,61.459Z" fill="#653200"/>
<path d="M46.226,60.667C46.226,60.667 47.018,60.852 47.098,62.542L46.49,64.046L43.19,62.33C43.19,62.357 43.982,61.354 46.226,60.667Z" fill="#1CA9B7"/>
<path d="M54.094,61.459C53.856,62.014 53.592,62.489 53.407,63.043C53.275,62.7 53.117,62.357 52.932,62.014L52.906,61.987C52.826,61.855 52.642,61.802 52.51,61.882C52.43,61.934 52.378,62.04 52.378,62.146C52.43,62.489 52.562,62.806 52.774,63.096C52.747,63.122 52.721,63.122 52.694,63.149C52.219,63.677 52.325,64.495 52.378,65.129C52.378,65.261 52.51,65.366 52.642,65.366C52.694,65.366 52.721,65.366 52.747,65.34C52.8,65.34 52.826,65.34 52.879,65.314C53.302,65.023 53.618,64.574 53.75,64.073C54.014,63.254 54.358,62.357 54.094,61.459Z" fill="#E85454"/>
<path d="M41.738,61.433L42.926,61.063C43.217,61.116 45.804,62.172 46.886,63.994C47.018,64.548 47.098,65.129 47.15,65.71C47.256,66.475 47.335,67.241 47.362,68.006C47.414,68.851 47.388,69.696 47.335,70.514C47.309,70.884 47.282,71.042 47.203,71.412C47.071,71.544 46.913,71.623 46.728,71.702C43.164,72.943 40.498,70.937 40.418,70.646C40.339,70.356 40.128,66.211 40.049,63.756C39.996,62.7 40.709,61.723 41.738,61.433Z" fill="#1CA9B7"/>
<path d="M44.906,57.156C44.906,57.156 45.698,61.195 44.22,61.644C42.742,62.093 40.973,60.403 40.841,59.558C40.709,58.714 42.794,55.81 44.906,57.156Z" fill="#E85454"/>
<path d="M44.326,58.793C44.378,58.74 45.223,58.502 45.408,57.763C45.593,57.024 44.933,56.1 43.454,55.968C41.976,55.836 39.468,56.654 39.838,60.588C40.207,64.522 44.167,62.832 44.431,61.565C44.563,60.641 44.51,59.69 44.326,58.793Z" fill="#653200"/>
<path d="M44.326,58.793C44.326,58.793 44.563,60.139 45.118,60.72C45.672,61.301 46.094,62.357 45.434,63.149C44.774,63.941 45.434,64.39 46.385,65.129C47.335,65.868 46.754,69.01 43.349,68.244C39.943,67.478 38.333,65.419 38.333,65.419C38.333,65.419 39.204,59.294 40.128,57.869Z" fill="#653200"/>
<path d="M46.886,64.073C46.886,64.073 47.652,66.66 48.418,66.739C49.183,66.818 50.345,65.683 51.163,64.205C52.351,64.073 53.407,64.944 53.539,66.132C53.539,66.185 53.539,66.238 53.539,66.264C53.539,66.264 50.82,71.755 46.886,70.409Z" fill="#1CA9B7"/>
<path d="M51.085,62.216C51.96,62.216 52.669,61.601 52.669,60.843C52.669,60.085 51.96,59.47 51.085,59.47C50.21,59.47 49.501,60.085 49.501,60.843C49.501,61.601 50.21,62.216 51.085,62.216Z" transform="rotate(-137.421 51.085 60.843)" fill="#053855"/>
<path d="M50.186,60.43L50.609,60.298L50.767,60.905L52.166,60.403L52.219,60.826L50.53,61.459L50.186,60.43Z" fill="#FFFFFF"/>
<path d="M32.683,83.741C30.254,80.705 29.146,76.824 29.198,72.943C29.225,69.802 30.466,66.792 32.657,64.522C34.663,62.462 37.699,61.459 40.366,62.832C42.583,63.994 43.666,66.211 44.458,68.482C45.382,71.201 45.698,74.686 49.025,75.53C50.318,75.847 51.665,75.636 52.985,75.53C55.308,75.372 57.737,76.111 58.45,78.593C59.743,83.002 53.803,86.777 50.477,88.176C44.563,90.605 37.778,89.126 33.396,84.48C33.132,84.269 32.921,84.031 32.683,83.741Z" fill="#FCC62D"/>
<path d="M23.153,31.522L23.443,48.154C23.47,48.734 23.945,49.183 24.526,49.183C24.684,49.183 24.842,49.13 24.974,49.078L39.125,42.029C39.6,41.791 39.89,41.29 39.89,40.762L39.6,24.103C39.6,23.47 39.072,22.968 38.465,22.994C38.28,22.994 38.122,23.047 37.963,23.126L23.971,30.281C23.443,30.492 23.153,30.967 23.153,31.522Z" fill="#3CAC6E"/>
<path d="M37.409,34.03C34.716,34.795 35.64,37.805 33.713,39.389C31.363,41.316 30.466,35.825 27.588,36.194C24.13,36.59 23.443,48.18 23.443,48.18C23.998,49.5 24.948,49.104 24.948,49.104L39.864,41.659L39.758,35.244C39.151,34.505 38.359,33.95 37.409,34.03Z" fill="#1CA9B7"/>
<path d="M75.794,21.094L113.203,42.9L105.442,68.93L67.558,47.784L75.794,21.094Z" fill="#3CAC6E"/>
<path d="M81.893,44.114C85.8,46.332 94.512,51.374 97.838,53.302C98.604,53.75 98.921,54.674 98.63,55.493L98.578,55.678C98.234,56.602 97.205,57.103 96.281,56.76C96.175,56.734 96.07,56.681 95.99,56.628L79.992,47.388C79.2,46.939 78.857,45.962 79.174,45.118C79.543,44.141 80.626,43.639 81.602,44.009C81.708,44.035 81.787,44.062 81.893,44.114Z" fill="#FFFFFF"/>
<path d="M83.434,48.033C83.901,48.033 84.279,47.714 84.279,47.32C84.279,46.926 83.901,46.607 83.434,46.607C82.968,46.607 82.589,46.926 82.589,47.32C82.589,47.714 82.968,48.033 83.434,48.033Z" transform="rotate(-160.181 83.434 47.32)" fill="#1CA9B7"/>
<path d="M85.415,49.202C85.881,49.202 86.26,48.883 86.26,48.489C86.26,48.096 85.881,47.776 85.415,47.776C84.948,47.776 84.57,48.096 84.57,48.489C84.57,48.883 84.948,49.202 85.415,49.202Z" transform="rotate(-160.181 85.415 48.489)" fill="#1CA9B7"/>
<path d="M87.389,50.382C87.856,50.382 88.234,50.062 88.234,49.669C88.234,49.275 87.856,48.956 87.389,48.956C86.923,48.956 86.544,49.275 86.544,49.669C86.544,50.062 86.923,50.382 87.389,50.382Z" transform="rotate(-160.181 87.389 49.669)" fill="#1CA9B7"/>
<path d="M89.469,51.59C89.936,51.59 90.314,51.271 90.314,50.877C90.314,50.483 89.936,50.164 89.469,50.164C89.003,50.164 88.625,50.483 88.625,50.877C88.625,51.271 89.003,51.59 89.469,51.59Z" transform="rotate(-160.181 89.469 50.877)" fill="#1CA9B7"/>
<path d="M91.558,52.812C92.025,52.812 92.403,52.493 92.403,52.099C92.403,51.706 92.025,51.387 91.558,51.387C91.092,51.387 90.714,51.706 90.714,52.099C90.714,52.493 91.092,52.812 91.558,52.812Z" transform="rotate(-160.181 91.558 52.099)" fill="#1CA9B7"/>
<path d="M93.624,54.008C94.09,54.008 94.468,53.689 94.468,53.295C94.468,52.901 94.09,52.582 93.624,52.582C93.157,52.582 92.779,52.901 92.779,53.295C92.779,53.689 93.157,54.008 93.624,54.008Z" transform="rotate(-160.181 93.624 53.295)" fill="#1CA9B7"/>
<path d="M91.343,44.252C93.573,44.252 95.382,42.562 95.382,40.477C95.382,38.392 93.573,36.702 91.343,36.702C89.112,36.702 87.303,38.392 87.303,40.477C87.303,42.562 89.112,44.252 91.343,44.252Z" transform="rotate(-160.181 91.343 40.477)" fill="#FFFFFF"/>
<path d="M91.387,41.192C92.247,41.192 92.944,40.577 92.944,39.819C92.944,39.061 92.247,38.446 91.387,38.446C90.527,38.446 89.829,39.061 89.829,39.819C89.829,40.577 90.527,41.192 91.387,41.192Z" transform="rotate(-147.48 91.387 39.819)" fill="#1CA9B7"/>
<path d="M87.754,41.95C87.754,41.95 89.047,40.524 90.79,41.105C92.11,41.501 92.849,42.874 92.532,44.194C92.532,44.194 91.133,45.091 89.258,43.877C89.258,43.877 87.991,43.058 87.754,41.95Z" fill="#1CA9B7"/>
<path d="M78.698,48.444C79.094,48.365 79.49,48.286 79.886,48.154C80.309,47.995 78.778,47.678 78.778,47.678Z" fill="#1CA9B7"/>
<path d="M74.87,37.62C75.372,37.382 75.9,37.25 76.454,37.25C77.194,37.33 76.349,38.834 76.349,38.834Z" fill="#1CA9B7"/>
<path d="M76.982,37.435L81.893,40.366C82.368,40.656 82.579,41.237 82.421,41.765L80.599,47.256C80.362,47.969 79.807,48.444 79.147,48.048L73.867,45.223C73.392,44.933 73.181,44.352 73.366,43.85L75.24,38.095C75.451,37.462 76.111,37.118 76.745,37.33C76.824,37.356 76.903,37.382 76.982,37.435Z" fill="#1CA9B7"/>
<path d="M75.979,37.699L80.89,40.63C81.365,40.92 81.602,41.501 81.418,42.029L79.596,47.52C79.358,48.233 78.804,48.708 78.144,48.312L72.864,45.487C72.389,45.197 72.178,44.616 72.362,44.114L74.237,38.359C74.448,37.726 75.108,37.382 75.742,37.594C75.821,37.62 75.9,37.646 75.979,37.699Z" fill="#1CA9B7"/>
<path d="M77.114,37.937C77.114,37.937 77.906,34.769 79.939,35.244C81.972,35.719 80.335,39.811 80.335,39.811C80.335,39.811 80.335,40.207 81.259,40.366C81.259,40.366 83.239,35.614 80.573,34.346C77.906,33.079 76.349,36.802 76.217,37.488C76.375,37.805 76.745,37.99 77.114,37.937Z" fill="#FFFFFF"/>
<path d="M77.003,42.953C77.718,42.953 78.297,42.315 78.297,41.527C78.297,40.74 77.718,40.102 77.003,40.102C76.289,40.102 75.709,40.74 75.709,41.527C75.709,42.315 76.289,42.953 77.003,42.953Z" transform="rotate(-16.097 77.003 41.527)" fill="#FFFFFF"/>
<path d="M75.266,44.642L76.454,41.263C76.534,40.999 76.824,40.867 77.088,40.973L77.326,41.052C77.59,41.131 77.722,41.422 77.616,41.686L76.428,45.065C76.349,45.329 76.058,45.461 75.794,45.355L75.557,45.276C75.319,45.17 75.187,44.88 75.266,44.642Z" fill="#FFFFFF"/>
</svg>
