<svg width="132" height="132" viewBox="0 0 132 132" fill="none" xmlns="http://www.w3.org/2000/svg" xmlns:xlink="http://www.w3.org/1999/xlink">
<path d="M64.231,116.002L8.342,82.949C6.574,81.946 5.042,80.309 6.758,79.226L62.858,46.913C63.703,46.385 64.97,46.042 65.842,46.543L124.502,80.599C126.271,81.629 126.614,84.506 124.819,85.562L71.597,115.922C69.326,117.242 66.528,117.269 64.231,116.002Z" fill="#FFBE30"/>
<path d="M63.809,41.237C63.149,40.841 62.278,40.973 61.538,41.237C58.423,42.319 53.909,44.51 53.962,48.365C53.988,50.45 54.199,52.51 54.595,54.569C54.754,55.387 55.44,59.03 55.915,59.743C56.628,60.773 59.242,55.783 59.822,55.387C60.852,54.701 61.855,54.014 62.832,53.275C63.571,52.721 65.208,51.876 65.498,51.005C65.551,50.82 65.578,50.609 65.578,50.398C65.63,48.576 65.525,46.754 65.287,44.933C65.05,43.771 64.97,41.923 63.809,41.237Z" fill="#297600"/>
<path d="M41.87,66.528L46.279,89.734L70.25,103.646L107.95,80.388L109.877,57.394Z" fill="#FF9476"/>
<g opacity="0.3">
<path d="M41.87,66.528L46.279,89.734L70.25,103.646L107.95,80.388L109.877,57.394Z" fill="#272322"/>
</g>
<path d="M41.87,66.528L67.742,81.655L109.877,57.394L84.005,42.214L41.87,66.528Z" fill="#FF9476"/>
<g opacity="0.4">
<path d="M70.25,103.646L67.954,81.655L109.877,57.394L107.95,80.388L70.25,103.646Z" fill="#272322"/>
</g>
<path d="M70.198,59.822C70.224,59.242 69.96,58.687 69.538,58.318C69.749,58.291 69.907,58.08 69.854,57.895C69.828,57.763 69.722,57.631 69.59,57.578C69.01,57.42 68.402,57.182 67.769,57.05C67.716,57.024 67.69,56.998 67.637,56.998C66.396,56.76 65.261,56.179 64.337,55.308C64.178,55.176 63.941,55.176 63.782,55.334C63.677,55.44 63.65,55.598 63.703,55.73C63.571,55.81 63.466,55.942 63.466,56.1C63.254,56.126 63.096,56.311 63.122,56.549C63.122,56.628 63.175,56.707 63.228,56.76C63.36,56.892 63.492,57.05 63.65,57.156C63.65,57.182 63.677,57.209 63.677,57.235C63.624,57.262 63.598,57.314 63.571,57.367C63.413,57.209 63.254,57.05 63.096,56.918C62.726,56.602 62.172,57.156 62.568,57.446C63.017,57.816 63.413,58.265 63.914,58.476C64.654,59.189 65.604,59.374 66.607,59.294C66.634,59.321 66.686,59.347 66.713,59.374C67.188,59.69 67.135,60.298 67.214,60.826C67.267,61.037 67.478,61.142 67.69,61.09C67.769,61.063 67.848,61.01 67.901,60.931C68.138,60.403 68.033,59.796 67.927,59.242C68.218,59.347 68.429,59.585 68.508,59.875C68.614,60.245 68.666,60.614 68.719,61.01C68.825,61.486 69.538,61.301 69.458,60.799L69.458,60.773C69.643,60.799 69.802,60.694 69.854,60.509C69.854,60.482 69.854,60.456 69.854,60.403L69.828,60.192C70.066,60.192 70.198,60.034 70.198,59.822C70.198,59.849 70.198,59.849 70.198,59.822Z" fill="#FFE9CA"/>
<path d="M77.642,51.718C77.827,51.401 77.59,50.926 77.405,50.635C77.035,50.107 76.613,49.658 76.111,49.262C75.953,49.13 75.689,49.157 75.557,49.315C75.478,49.421 75.451,49.553 75.478,49.685C75.425,49.658 75.398,49.658 75.346,49.658C75.266,49.5 75.108,49.394 74.923,49.368C74.633,49.104 74.237,49.5 74.342,49.817C74.158,49.843 74.026,50.002 74.026,50.186C74.052,50.477 74.131,50.741 74.29,50.978C74.052,50.741 73.814,50.503 73.577,50.266C73.286,49.975 72.732,50.398 72.996,50.741C73.049,50.794 73.075,50.846 73.128,50.926C73.181,50.978 73.234,51.031 73.286,51.058L73.498,51.242C73.709,51.559 73.946,51.876 74.184,52.193C74.052,52.298 74.026,52.483 74.105,52.642C74.105,52.642 74.105,52.668 74.131,52.668C74.554,53.222 75.583,54.938 76.428,54.094C76.639,54.41 76.85,54.727 77.035,55.044C77.141,55.229 77.378,55.282 77.537,55.176C77.59,55.15 77.642,55.097 77.669,55.018C77.774,54.965 77.827,54.833 77.801,54.701C77.748,54.437 77.669,54.173 77.563,53.909C77.959,53.618 77.906,53.196 77.695,52.8C77.854,52.43 77.827,52.034 77.642,51.718Z" fill="#FFE9CA"/>
<path d="M73.709,53.038C74.422,51.269 76.111,50.002 77.906,49.236L76.481,48.206C74.897,46.807 73.339,45.329 71.782,43.877C70.013,42.266 68.35,40.049 65.842,39.706C64.68,39.547 63.307,39.811 62.172,40.022C60.931,40.286 59.638,40.788 58.714,41.765C57.71,42.847 57.314,44.352 56.892,45.751C56.443,47.203 56.126,48.708 55.942,50.239C55.836,51.322 55.704,52.642 56.126,53.671C56.39,54.305 56.734,54.912 57.13,55.466C58.397,56.734 59.796,57.816 61.354,58.714C61.776,58.951 62.172,59.189 62.621,59.4C63.624,58.08 65.155,56.76 66.818,56.232L63.598,54.067L69.538,50.582L73.709,53.038Z" fill="#3CAC6E"/>
<path d="M66.95,52.114L65.842,39.706L63.413,38.993L60.984,39.811C63.096,40.762 63.994,51.269 64.469,53.566C64.548,53.539 66.924,52.14 66.95,52.114Z" fill="#F7FFEB"/>
<path d="M68.772,58.238C68.693,58.186 68.614,58.318 68.693,58.37C69.3,58.793 69.696,59.453 69.749,60.166C69.749,60.271 69.907,60.271 69.907,60.166C69.828,59.374 69.406,58.687 68.772,58.238Z" fill="#272322"/>
<path d="M68.35,58.661C68.323,58.634 68.27,58.661 68.244,58.687C68.218,58.714 68.244,58.766 68.27,58.793C68.93,59.189 69.326,59.902 69.326,60.667C69.326,60.72 69.379,60.746 69.406,60.72C69.432,60.72 69.458,60.694 69.458,60.667C69.485,59.849 69.036,59.11 68.35,58.661Z" fill="#272322"/>
<path d="M69.696,58.265C69.036,57.737 68.323,57.314 67.558,56.998C67.478,56.971 67.426,57.103 67.531,57.156C68.27,57.473 68.983,57.869 69.617,58.37C69.67,58.45 69.775,58.344 69.696,58.265Z" fill="#272322"/>
<path d="M77.642,53.962C77.906,53.75 78.012,53.407 77.88,53.09C77.854,52.958 77.801,52.853 77.748,52.721L77.774,52.694C78.012,52.193 77.695,51.718 77.484,51.269C77.431,51.19 77.299,51.269 77.352,51.348C77.537,51.718 77.827,52.114 77.695,52.51C77.563,52.219 77.405,51.929 77.22,51.691C77.167,51.612 77.035,51.691 77.088,51.77C77.378,52.193 78.17,53.434 77.563,53.83L77.537,53.856C77.299,53.222 77.009,52.615 76.692,52.034C76.639,51.955 76.507,52.034 76.56,52.114C76.798,52.562 77.009,53.011 77.22,53.46C77.299,53.645 77.378,53.83 77.458,54.041L77.563,54.358C77.59,54.463 77.616,54.516 77.616,54.542C77.642,54.622 77.642,54.727 77.616,54.806C77.563,54.938 77.431,55.018 77.299,54.991C77.22,54.965 77.141,54.912 77.088,54.859C77.035,54.833 77.035,54.78 76.956,54.648L76.798,54.384C76.666,54.173 76.534,53.962 76.402,53.75L75.583,52.457C75.53,52.378 75.398,52.457 75.451,52.536L76.745,54.595C76.903,54.859 77.246,55.493 77.669,55.176C78.012,54.912 77.722,54.305 77.59,53.988C77.616,53.988 77.642,53.988 77.642,53.962Z" fill="#272322"/>
<g opacity="0.47">
<path d="M64.126,54.12C63.36,53.328 62.621,52.51 61.908,51.665L61.908,49.817C61.882,49.685 61.776,49.606 61.644,49.606C61.538,49.606 61.459,49.711 61.433,49.817L61.433,51.11L61.142,50.741C60.958,50.503 60.641,50.846 60.826,51.058C61.01,51.269 61.248,51.586 61.433,51.823C61.459,51.876 61.486,51.929 61.538,51.955C62.251,52.8 62.99,53.645 63.756,54.437C63.994,54.648 64.337,54.331 64.126,54.12Z" fill="#56403D"/>
</g>
<g opacity="0.47">
<path d="M69.59,50.582L68.64,46.702L67.874,51.559L69.59,50.582Z" fill="#56403D"/>
</g>
<g opacity="0.47">
<path d="M61.538,40.313C61.565,40.418 64.337,42.768 64.337,42.768L64.733,41.474L65.657,42.583L65.974,40.999L65.868,39.706Z" fill="#56403D"/>
</g>
<path d="M63.307,40.26C61.354,41.026 59.083,39.442 59.902,36.01C60.641,32.894 64.469,33.264 64.469,33.264Z" fill="#FFBE30"/>
<path d="M64.02,34.056C62.225,33.977 61.01,36.247 61.09,37.462C61.116,37.91 61.195,38.359 61.354,38.808C61.406,38.808 61.433,38.834 61.486,38.834C61.75,38.914 61.987,39.046 62.146,39.257C62.33,39.494 62.383,39.811 62.568,40.075C62.885,40.498 63.334,40.814 63.835,40.973C63.994,40.999 64.126,41.026 64.284,41.026C66.686,41.184 66.686,35.719 66.766,35.376C66.053,34.558 65.076,34.109 64.02,34.056Z" fill="#FFE9CA"/>
<path d="M63.862,36.96L66,36.538C66.106,36.142 66.132,35.746 66.053,35.35L66.29,36.458L67.082,36.458C67.082,36.458 67.637,34.32 65.208,33.475C62.779,32.63 60.456,33.95 60.562,36.115C60.588,37.356 61.063,38.518 61.882,39.442C61.882,39.442 60.667,37.382 61.09,38.254C61.618,39.336 62.146,37.277 62.119,36.643L62.383,37.118L63.862,36.96Z" fill="#FFBE30"/>
<path d="M62.515,38.544C62.515,38.227 62.357,37.91 62.119,37.699C61.908,37.514 61.538,37.356 61.301,37.594C61.063,37.831 61.142,38.227 61.222,38.491C61.327,38.861 61.512,39.178 61.75,39.468C62.014,39.758 62.436,39.336 62.172,39.046C62.093,38.966 62.04,38.861 61.961,38.755C62.066,38.887 62.251,38.887 62.383,38.782C62.489,38.729 62.515,38.623 62.515,38.544Z" fill="#FFE9CA"/>
<path d="M63.439,39.072C62.858,39.151 62.33,38.729 62.277,38.148C62.198,37.567 62.621,37.039 63.202,36.986C63.782,36.934 64.31,37.33 64.363,37.91C64.363,37.963 64.363,37.99 64.363,38.042C64.39,38.57 63.967,39.046 63.439,39.072ZM63.439,37.066C62.911,37.013 62.41,37.382 62.357,37.937C62.304,38.465 62.674,38.966 63.228,39.019C63.756,39.072 64.258,38.702 64.31,38.148C64.31,38.122 64.31,38.069 64.31,38.042C64.31,37.514 63.941,37.092 63.439,37.066Z" fill="#272322"/>
<path d="M65.736,38.518C65.287,38.518 64.918,38.042 64.918,37.488C64.918,36.934 65.287,36.432 65.736,36.432C66.185,36.432 66.554,36.907 66.554,37.488C66.554,38.069 66.211,38.518 65.736,38.518ZM65.736,36.485C65.314,36.485 64.97,36.934 64.97,37.462C64.97,37.99 65.314,38.438 65.736,38.438C66.158,38.438 66.502,37.99 66.502,37.462C66.502,36.934 66.158,36.485 65.736,36.485Z" fill="#272322"/>
<path d="M64.706,37.646C64.706,37.594 64.627,37.541 64.574,37.541C64.522,37.541 64.495,37.594 64.469,37.646C64.469,37.831 64.495,38.042 64.574,38.227C64.654,38.412 64.706,38.623 64.759,38.834C64.654,38.887 64.522,38.94 64.416,38.966C64.284,39.019 64.337,39.257 64.469,39.204C64.68,39.125 64.997,39.098 64.997,38.808C64.97,38.412 64.706,38.069 64.706,37.646Z" fill="#272322"/>
<path d="M65.056,38.018L64.316,38.018L64.316,38.071L65.056,38.071L65.056,38.018Z" transform="rotate(-24.384 64.686 38.044)" fill="#272322"/>
<path d="M61.756,37.5L61.704,37.5L61.704,38.266L61.756,38.266L61.756,37.5Z" transform="rotate(-115.5 61.73 37.883)" fill="#272322"/>
<path d="M64.574,39.626C64.337,39.864 63.994,39.732 63.782,39.521C63.703,39.442 63.598,39.547 63.677,39.626C63.914,39.943 64.337,39.996 64.654,39.785L64.68,39.758C64.786,39.679 64.654,39.547 64.574,39.626Z" fill="#272322"/>
<path d="M59.136,38.359C59.923,38.359 60.562,37.721 60.562,36.934C60.562,36.146 59.923,35.508 59.136,35.508C58.349,35.508 57.71,36.146 57.71,36.934C57.71,37.721 58.349,38.359 59.136,38.359Z" fill="#FFBE30"/>
<path d="M65.525,33.686C65.525,33.686 64.997,33.158 62.779,34.241C60.773,35.218 61.433,37.567 61.433,37.567L60.773,37.99C60.773,37.99 59.743,35.825 60.984,34.267C62.542,32.314 64.205,33 64.205,33C64.205,33 65.155,33.211 65.525,33.686Z" fill="#272322"/>
<path d="M64.548,40.102C64.469,40.102 64.39,40.181 64.363,40.26L64.337,40.286C63.518,40.55 62.621,40.286 62.066,39.653C62.594,39.257 62.726,38.491 62.33,37.963C61.934,37.435 61.169,37.303 60.641,37.699C60.113,38.095 59.981,38.861 60.377,39.389C60.614,39.706 60.958,39.89 61.354,39.89C61.459,39.89 61.591,39.864 61.697,39.838C61.697,39.838 61.697,39.864 61.723,39.864C62.41,40.682 63.545,40.999 64.548,40.656C64.654,40.735 64.838,40.709 64.918,40.603L64.944,40.577C65.076,40.286 64.786,40.075 64.548,40.102Z" fill="#272322"/>
<path d="M100.742,52.008L98.974,51.19C98.419,50.926 97.759,50.582 97.786,49.87C97.786,49.79 97.68,49.79 97.68,49.87C97.654,50.45 98.076,50.846 98.578,51.11C99.264,51.48 100.003,51.77 100.69,52.087C100.742,52.14 100.795,52.034 100.742,52.008Z" fill="#272322"/>
<path d="M100.901,50.714L100.901,51.876C100.901,51.902 100.927,51.929 100.954,51.929C100.98,51.929 101.006,51.902 101.006,51.876L101.006,50.714C101.006,50.688 100.98,50.662 100.954,50.662C100.927,50.662 100.901,50.688 100.901,50.714Z" fill="#272322"/>
<path d="M100.135,53.249C99.818,52.694 99.185,52.404 98.578,52.219C97.918,52.008 97.152,51.85 96.518,52.193C96.492,52.193 96.492,52.219 96.492,52.246C96.307,52.325 96.122,52.404 95.964,52.51C95.462,52.8 94.882,53.222 94.618,53.75C94.354,54.278 94.591,55.018 94.776,55.572C94.961,56.153 95.33,56.628 95.832,56.945C96.386,57.235 97.02,57.314 97.627,57.235C98.314,57.156 98.947,56.918 99.502,56.522C100.426,55.836 100.716,54.226 100.135,53.249ZM99.686,56.206C99.238,56.602 98.71,56.866 98.129,56.971C97.548,57.156 96.967,57.156 96.386,57.024C95.832,56.866 95.357,56.496 95.093,55.994C94.802,55.466 94.644,54.912 94.618,54.305C94.618,53.592 95.225,53.117 95.753,52.747C96.281,52.378 96.967,52.034 97.68,52.219C97.706,52.219 97.733,52.193 97.759,52.166C97.759,52.14 97.759,52.14 97.733,52.114C97.918,52.14 98.129,52.193 98.314,52.246C98.842,52.351 99.343,52.589 99.766,52.932C100.162,53.354 100.346,53.935 100.294,54.49C100.32,55.15 100.082,55.757 99.686,56.206Z" fill="#272322"/>
<path d="M98.313,54.648C98.234,54.173 97.865,53.777 97.389,53.698C97.521,53.618 97.68,53.566 97.812,53.513C97.891,53.486 97.838,53.381 97.785,53.407C97.574,53.486 97.39,53.566 97.205,53.671C97.178,53.671 97.152,53.671 97.152,53.698C96.782,53.882 96.545,54.226 96.492,54.622C96.439,55.176 96.993,55.625 97.521,55.651C97.97,55.651 98.34,55.308 98.34,54.859C98.34,54.78 98.34,54.701 98.313,54.648ZM97.363,55.519C96.861,55.414 96.439,54.965 96.624,54.437C96.73,54.173 96.941,53.935 97.205,53.803C97.654,53.83 98.049,54.12 98.181,54.542C98.34,55.097 97.944,55.651 97.363,55.519Z" fill="#272322"/>
<path d="M97.918,54.49C97.812,54.252 97.495,54.305 97.363,54.12C97.31,54.067 97.231,54.146 97.284,54.199C97.363,54.278 97.469,54.331 97.574,54.358C97.654,54.384 97.706,54.41 97.759,54.437C97.733,54.437 97.706,54.437 97.68,54.463L97.627,54.674C97.627,54.701 97.627,54.727 97.654,54.727C97.759,54.754 97.865,54.701 97.918,54.595C97.918,54.595 97.918,54.542 97.918,54.49ZM97.759,54.648L97.786,54.516L97.786,54.49C97.786,54.516 97.812,54.516 97.812,54.542C97.812,54.595 97.786,54.648 97.759,54.648Z" fill="#272322"/>
<path d="M92.479,56.047L98.921,59.743L103.778,56.945L103.778,52.114L98.551,49.104L96.149,50.398L92.479,56.047Z" fill="#3CAC6E"/>
<path d="M103.778,52.114L101.455,53.46L98.921,59.743L103.778,56.945L103.778,52.114Z" fill="#3CAC6E"/>
<g opacity="0.22">
<path d="M92.479,56.047L98.921,59.743L103.778,56.945L103.778,52.114L98.551,49.104L96.149,50.398L92.479,56.047Z" fill="#272322"/>
</g>
<g opacity="0.55">
<path d="M103.778,52.114L101.455,53.46L98.921,59.743L103.778,56.945L103.778,52.114Z" fill="#272322"/>
</g>
<path d="M101.455,53.46L96.149,50.398L92.479,56.047L98.921,59.743L101.455,53.46Z" fill="#3CAC6E"/>
<path d="M97.363,57.05C98.573,57.05 99.554,56.093 99.554,54.912C99.554,53.731 98.573,52.774 97.363,52.774C96.153,52.774 95.172,53.731 95.172,54.912C95.172,56.093 96.153,57.05 97.363,57.05Z" fill="#FFBE30"/>
<path d="M95.829,54.274C95.989,54.274 96.119,54.156 96.119,54.01C96.119,53.864 95.989,53.746 95.829,53.746C95.668,53.746 95.538,53.864 95.538,54.01C95.538,54.156 95.668,54.274 95.829,54.274Z" transform="rotate(-99.718 95.829 54.01)" fill="#272322"/>
<path d="M95.978,53.855C96.138,53.855 96.268,53.736 96.268,53.591C96.268,53.445 96.138,53.327 95.978,53.327C95.817,53.327 95.687,53.445 95.687,53.591C95.687,53.736 95.817,53.855 95.978,53.855Z" transform="rotate(-120.225 95.978 53.591)" fill="#272322"/>
<path d="M96.997,53.617C97.157,53.617 97.287,53.498 97.287,53.353C97.287,53.207 97.157,53.089 96.997,53.089C96.837,53.089 96.707,53.207 96.707,53.353C96.707,53.498 96.837,53.617 96.997,53.617Z" transform="rotate(-99.718 96.997 53.353)" fill="#272322"/>
<path d="M96.944,53.582C97.104,53.582 97.234,53.464 97.234,53.318C97.234,53.172 97.104,53.054 96.944,53.054C96.784,53.054 96.653,53.172 96.653,53.318C96.653,53.464 96.784,53.582 96.944,53.582Z" transform="rotate(-119.999 96.944 53.318)" fill="#272322"/>
<path d="M98.16,53.752C98.32,53.752 98.45,53.633 98.45,53.488C98.45,53.342 98.32,53.224 98.16,53.224C98,53.224 97.87,53.342 97.87,53.488C97.87,53.633 98,53.752 98.16,53.752Z" transform="rotate(-99.718 98.16 53.488)" fill="#272322"/>
<path d="M98.11,53.717C98.27,53.717 98.4,53.599 98.4,53.453C98.4,53.307 98.27,53.189 98.11,53.189C97.95,53.189 97.82,53.307 97.82,53.453C97.82,53.599 97.95,53.717 98.11,53.717Z" transform="rotate(-119.999 98.11 53.453)" fill="#272322"/>
<path d="M98.956,54.905C99.116,54.905 99.246,54.787 99.246,54.641C99.246,54.495 99.116,54.377 98.956,54.377C98.795,54.377 98.665,54.495 98.665,54.641C98.665,54.787 98.795,54.905 98.956,54.905Z" transform="rotate(-99.718 98.956 54.641)" fill="#272322"/>
<path d="M98.864,54.877C99.025,54.877 99.155,54.758 99.155,54.613C99.155,54.467 99.025,54.349 98.864,54.349C98.704,54.349 98.574,54.467 98.574,54.613C98.574,54.758 98.704,54.877 98.864,54.877Z" transform="rotate(-119.999 98.864 54.613)" fill="#272322"/>
<path d="M98.591,56.227C98.752,56.227 98.882,56.109 98.882,55.963C98.882,55.818 98.752,55.699 98.591,55.699C98.431,55.699 98.301,55.818 98.301,55.963C98.301,56.109 98.431,56.227 98.591,56.227Z" transform="rotate(-99.718 98.591 55.963)" fill="#272322"/>
<path d="M98.517,56.176C98.677,56.176 98.807,56.058 98.807,55.912C98.807,55.766 98.677,55.648 98.517,55.648C98.356,55.648 98.226,55.766 98.226,55.912C98.226,56.058 98.356,56.176 98.517,56.176Z" transform="rotate(-119.999 98.517 55.912)" fill="#272322"/>
<path d="M95.804,55.616C95.964,55.616 96.094,55.498 96.094,55.352C96.094,55.206 95.964,55.088 95.804,55.088C95.644,55.088 95.514,55.206 95.514,55.352C95.514,55.498 95.644,55.616 95.804,55.616Z" transform="rotate(-99.718 95.804 55.352)" fill="#272322"/>
<path d="M95.736,55.603C95.896,55.603 96.026,55.485 96.026,55.339C96.026,55.193 95.896,55.075 95.736,55.075C95.576,55.075 95.445,55.193 95.445,55.339C95.445,55.485 95.576,55.603 95.736,55.603Z" transform="rotate(-119.999 95.736 55.339)" fill="#272322"/>
<path d="M97.077,56.525C97.238,56.525 97.368,56.407 97.368,56.261C97.368,56.115 97.238,55.997 97.077,55.997C96.917,55.997 96.787,56.115 96.787,56.261C96.787,56.407 96.917,56.525 97.077,56.525Z" transform="rotate(-99.718 97.077 56.261)" fill="#272322"/>
<path d="M97.004,56.472C97.164,56.472 97.294,56.353 97.294,56.208C97.294,56.062 97.164,55.944 97.004,55.944C96.843,55.944 96.713,56.062 96.713,56.208C96.713,56.353 96.843,56.472 97.004,56.472Z" transform="rotate(-119.999 97.004 56.208)" fill="#272322"/>
<path d="M97.363,55.836C96.782,55.81 96.333,55.334 96.333,54.754C96.333,54.173 96.835,53.724 97.416,53.724C97.997,53.75 98.445,54.199 98.445,54.78C98.445,55.387 97.944,55.836 97.363,55.836ZM97.363,53.988C96.914,54.014 96.597,54.384 96.597,54.806C96.624,55.255 96.993,55.572 97.416,55.572C97.838,55.546 98.181,55.202 98.181,54.78C98.181,54.331 97.812,53.962 97.363,53.988Z" fill="#272322"/>
<path d="M94.855,48.55C94.855,48.55 96.175,46.86 98.023,47.652C99.871,48.444 102.67,49.79 103.435,50.556C104.201,51.322 104.333,53.064 104.333,53.434C104.333,53.434 102.3,52.193 102.062,51.559C101.798,50.926 101.35,50.424 100.769,50.054C100.346,49.843 97.258,48.418 96.967,48.523C96.677,48.629 94.855,48.55 94.855,48.55Z" fill="#3CAC6E"/>
<path d="M101.693,54.41L101.772,54.358C101.798,54.331 101.798,54.278 101.772,54.252C101.746,54.226 101.719,54.226 101.693,54.226L101.614,54.278C101.587,54.305 101.561,54.331 101.587,54.384C101.614,54.437 101.666,54.437 101.693,54.41Z" fill="#3CAC6E"/>
<path d="M93.614,51.058C93.43,50.873 93.377,50.582 93.509,50.371C93.667,50.054 93.852,49.764 94.037,49.474C94.697,48.444 95.885,47.705 97.178,47.89C98.393,48.074 99.581,48.655 100.663,49.21C105.362,51.638 104.306,54.384 104.174,54.648C104.042,54.912 104.148,55.81 102.749,55.519C101.35,55.229 101.138,54.12 101.27,53.83C101.402,53.539 102.142,52.457 101.587,51.902C101.033,51.348 97.627,49.658 97.258,49.817C96.888,49.975 96.439,51.163 96.439,51.322C96.439,51.48 95.014,52.457 93.614,51.058Z" fill="#3CAC6E"/>
<path d="M96.386,51.322C96.386,51.19 96.36,51.031 96.281,50.926C95.858,50.266 94.987,50.002 94.248,49.975C93.878,49.975 93.535,50.081 93.482,50.503C93.377,51.348 94.116,51.823 94.829,51.929C95.146,51.982 95.462,51.982 95.753,51.902C96.017,51.85 96.254,51.691 96.36,51.454C96.36,51.427 96.386,51.374 96.386,51.322Z" fill="#3CAC6E"/>
<path d="M104.095,54.886C104.095,54.754 104.069,54.595 103.99,54.49C103.567,53.83 102.696,53.566 101.957,53.539C101.587,53.539 101.244,53.645 101.191,54.067C101.086,54.912 101.825,55.387 102.538,55.493C102.854,55.546 103.171,55.546 103.462,55.466C103.726,55.414 103.963,55.255 104.069,55.018C104.095,54.991 104.095,54.938 104.095,54.886Z" fill="#3CAC6E"/>
<g opacity="0.5">
<path d="M96.386,51.322C96.386,51.19 96.36,51.031 96.281,50.926C95.858,50.266 94.987,50.002 94.248,49.975C93.878,49.975 93.535,50.081 93.482,50.503C93.377,51.348 94.116,51.823 94.829,51.929C95.146,51.982 95.462,51.982 95.753,51.902C96.017,51.85 96.254,51.691 96.36,51.454C96.36,51.427 96.386,51.374 96.386,51.322Z" fill="#3CAC6E"/>
</g>
<g opacity="0.5">
<path d="M104.095,54.886C104.095,54.754 104.069,54.595 103.99,54.49C103.567,53.83 102.696,53.566 101.957,53.539C101.587,53.539 101.244,53.645 101.191,54.067C101.086,54.912 101.825,55.387 102.538,55.493C102.854,55.546 103.171,55.546 103.462,55.466C103.726,55.414 103.963,55.255 104.069,55.018C104.095,54.991 104.095,54.938 104.095,54.886Z" fill="#3CAC6E"/>
</g>
<path d="M65.974,78.091L73.524,73.577L64.654,68.35L56.866,72.838L65.974,78.091Z" fill="#56403D"/>
<path d="M69.274,77.748L76.85,73.234L67.954,68.006L60.192,72.494L69.274,77.748Z" fill="#3CAC6E"/>
<path d="M55.625,69.538L57.13,70.541L65.366,65.815L63.782,64.838L55.625,69.538Z" fill="#56403D"/>
<path d="M70.673,49.368L87.041,39.917C87.463,39.679 87.991,39.811 88.229,40.234C88.308,40.366 88.334,40.524 88.334,40.656L88.334,53.17C88.334,53.671 88.07,54.12 87.648,54.358L71.518,63.466C71.042,63.756 70.409,63.598 70.118,63.122C70.013,62.964 69.96,62.779 69.96,62.594L69.96,50.609C69.96,50.107 70.224,49.632 70.673,49.368Z" fill="#56403D"/>
<path d="M78.778,57.262L78.778,62.594L82.5,60.614L82.5,55.361Z" fill="#56403D"/>
<path d="M79.782,63.276C83.267,63.276 86.091,62.603 86.091,61.771C86.091,60.94 83.267,60.267 79.782,60.267C76.297,60.267 73.472,60.94 73.472,61.771C73.472,62.603 76.297,63.276 79.782,63.276Z" transform="rotate(-52.244 79.782 61.771)" fill="#56403D"/>
<path d="M74.342,25.08L74.342,36.432L88.44,28.301C89.496,27.694 90.13,26.611 90.182,25.397L90.394,16.447C90.42,15.708 89.813,15.074 89.074,15.074C88.836,15.074 88.572,15.127 88.361,15.259L75.847,22.466C74.923,22.994 74.342,23.998 74.342,25.08Z" fill="#3CAC6E"/>
<path d="M74.342,36.432L74.342,40.445L78.038,33.396Z" fill="#3CAC6E"/>
<path d="M78.329,25.265C78.962,24.922 79.332,25.265 79.306,26.11C79.279,26.558 79.2,27.007 79.015,27.43L78.197,29.436L79.358,28.776L79.358,29.594L77.246,30.782L77.246,30.439L78.461,27.535C78.619,27.218 78.698,26.875 78.725,26.506C78.725,26.11 78.593,25.951 78.329,26.083C78.038,26.294 77.88,26.611 77.906,26.954L77.352,27.113C77.378,26.717 77.458,26.347 77.642,26.004C77.774,25.714 78.012,25.45 78.329,25.265Z" fill="#272322"/>
<path d="M81.814,26.506L82.183,26.294L82.183,27.113L81.814,27.324L81.814,28.222L81.206,28.565L81.206,27.667L79.781,28.459L79.781,28.037L81.206,23.734L81.84,23.39L81.814,26.506ZM81.206,26.849L81.206,25.001L80.494,27.271L81.206,26.849Z" fill="#272322"/>
<path d="M85.272,21.067L83.16,27.799L82.579,28.116L84.691,21.384L85.272,21.067Z" fill="#272322"/>
<path d="M87.727,20.038L87.727,20.407L86.46,25.608L85.853,25.951L87.014,21.226L85.721,21.965L85.721,21.173L87.727,20.038Z" fill="#272322"/>
<path d="M22.229,75.636L22.229,81.18L31.205,81.18L31.205,75.636Z" fill="#FF9476"/>
<path d="M26.717,77.854C29.195,77.854 31.205,76.861 31.205,75.636C31.205,74.411 29.195,73.418 26.717,73.418C24.238,73.418 22.229,74.411 22.229,75.636C22.229,76.861 24.238,77.854 26.717,77.854Z" fill="#56403D"/>
<path d="M26.717,83.609C29.195,83.609 31.205,82.616 31.205,81.391C31.205,80.166 29.195,79.174 26.717,79.174C24.238,79.174 22.229,80.166 22.229,81.391C22.229,82.616 24.238,83.609 26.717,83.609Z" fill="#FF9476"/>
<path d="M31.733,62.726C30.782,62.33 29.462,61.037 28.327,61.09C27.905,62.172 27.773,63.413 27.641,64.495C27.43,66.396 27.377,68.297 27.509,70.171C27.535,70.594 27.562,71.016 27.614,71.438C27.641,71.57 27.667,71.702 27.72,71.808L27.72,76.19C27.72,76.27 27.773,76.322 27.852,76.322C27.931,76.322 27.984,76.27 27.984,76.19L27.984,71.966C28.433,71.808 28.855,71.623 29.278,71.386C30.122,70.858 30.756,70.066 31.099,69.115C31.838,67.109 31.363,64.838 32.05,62.832C31.944,62.779 31.838,62.753 31.733,62.726Z" fill="#297600"/>
<path d="M29.806,59.4C29.278,59.717 28.829,60.166 28.512,60.72C28.433,60.852 28.354,60.984 28.301,61.116C28.274,61.142 28.274,61.169 28.274,61.195C28.195,61.433 28.116,61.644 28.063,61.882C28.169,61.697 28.327,61.565 28.538,61.512C28.776,61.406 29.04,61.38 29.278,61.433C29.515,61.538 29.753,61.644 29.964,61.802C30.281,61.987 30.598,62.225 30.914,62.41C32.393,63.36 34.399,63.466 35.534,62.066C35.561,62.014 35.561,61.961 35.561,61.908C35.746,60.984 33.079,57.499 29.806,59.4Z" fill="#5FAD00"/>
<path d="M34.874,62.674L35.059,62.542C35.059,62.515 35.059,62.462 35.033,62.436C34.135,61.512 33.158,60.614 31.944,60.139C31.073,59.796 30.096,59.717 29.172,59.875C29.066,59.981 28.987,60.113 28.882,60.245C29.885,59.902 31.152,60.113 32.05,60.509C33.132,60.984 34.003,61.802 34.822,62.647C34.822,62.674 34.848,62.674 34.874,62.674Z" fill="#297600"/>
<path d="M19.8,64.68C18.48,65.366 17.688,66.792 17.794,68.27C17.899,70.91 22.255,68.323 23.417,66.106C24.578,63.888 24.763,67.056 24.763,67.056Z" fill="#297600"/>
<path d="M23.734,63.756C22.915,63.756 22.097,63.862 21.305,64.099C20.777,64.231 20.275,64.416 19.8,64.68C20.064,64.865 20.381,65.023 20.671,65.155C21.226,65.366 21.78,65.657 22.07,66.158C22.15,66.29 22.202,66.422 22.229,66.554C22.493,67.426 22.255,68.482 22.625,69.353C22.994,70.277 23.707,71.016 24.737,71.069C25.978,71.148 26.532,69.96 26.77,68.93C27.007,67.901 27.35,66.502 26.954,65.472C26.532,64.258 24.895,63.809 23.734,63.756Z" fill="#5FAD00"/>
<path d="M25.344,67.901C24.816,66.211 23.734,64.654 22.123,63.914L22.07,63.914C22.044,63.914 22.018,63.941 21.991,63.941C21.886,63.967 21.806,63.994 21.701,64.02C23.575,64.706 24.737,66.554 25.212,68.429C25.819,70.831 25.608,73.445 25.634,75.9C25.634,75.979 25.687,76.032 25.766,76.032C25.846,76.032 25.898,75.979 25.898,75.9C25.898,73.26 26.136,70.435 25.344,67.901Z" fill="#297600"/>
<path d="M90.903,73.324C87.823,73.324 85.324,75.823 85.324,78.902C85.324,81.982 87.823,84.481 90.903,84.481C93.982,84.481 96.481,81.982 96.481,78.902C96.481,75.823 93.982,73.324 90.903,73.324ZM91.46,82.808L90.345,82.808L90.345,81.692L91.46,81.692L91.46,82.808ZM92.615,78.484L92.113,78.997C91.711,79.405 91.46,79.739 91.46,80.576L90.345,80.576L90.345,80.297C90.345,79.684 90.596,79.126 90.997,78.718L91.689,78.015C91.896,77.815 92.018,77.536 92.018,77.229C92.018,76.615 91.516,76.113 90.903,76.113C90.289,76.113 89.787,76.615 89.787,77.229L88.671,77.229C88.671,75.996 89.67,74.997 90.903,74.997C92.135,74.997 93.134,75.996 93.134,77.229C93.134,77.72 92.933,78.166 92.615,78.484Z" transform="rotate(-50.208 90.903 78.902)" fill="#C79F95"/>
</svg>
