<svg width="36" height="40" viewBox="0 0 36 40" fill="none" xmlns="http://www.w3.org/2000/svg" xmlns:xlink="http://www.w3.org/1999/xlink">
<path d="M7.333,2L7.333,0C6.7,0 6.103,0.3 5.726,0.81L7.333,2ZM2,9.2L0.393,8.01C0.138,8.354 0,8.771 0,9.2L2,9.2ZM34,9.2L36,9.2C36,8.771 35.862,8.354 35.607,8.01L34,9.2ZM28.667,2L30.274,0.81C29.897,0.3 29.3,0 28.667,0L28.667,2ZM5.726,0.81L0.393,8.01L3.607,10.39L8.941,3.19L5.726,0.81ZM0,9.2L0,34.4L4,34.4L4,9.2L0,9.2ZM0,34.4C0,37.469 2.464,40 5.556,40L5.556,36C4.72,36 4,35.307 4,34.4L0,34.4ZM5.556,40L30.444,40L30.444,36L5.556,36L5.556,40ZM30.444,40C33.536,40 36,37.469 36,34.4L32,34.4C32,35.307 31.28,36 30.444,36L30.444,40ZM36,34.4L36,9.2L32,9.2L32,34.4L36,34.4ZM35.607,8.01L30.274,0.81L27.06,3.19L32.393,10.39L35.607,8.01ZM28.667,0L7.333,0L7.333,4L28.667,4L28.667,0Z" fill="#34C759"/>
<path d="M2,7.2C0.895,7.2 0,8.095 0,9.2C0,10.305 0.895,11.2 2,11.2L2,7.2ZM34,11.2C35.105,11.2 36,10.305 36,9.2C36,8.095 35.105,7.2 34,7.2L34,11.2ZM2,11.2L34,11.2L34,7.2L2,7.2L2,11.2Z" fill="#34C759"/>
<path d="M27.111,16.4C27.111,15.295 26.216,14.4 25.111,14.4C24.007,14.4 23.111,15.295 23.111,16.4L27.111,16.4ZM12.889,16.4C12.889,15.295 11.994,14.4 10.889,14.4C9.784,14.4 8.889,15.295 8.889,16.4L12.889,16.4ZM23.111,16.4C23.111,19.295 20.8,21.6 18,21.6L18,25.6C23.055,25.6 27.111,21.458 27.111,16.4L23.111,16.4ZM18,21.6C15.201,21.6 12.889,19.295 12.889,16.4L8.889,16.4C8.889,21.458 12.945,25.6 18,25.6L18,21.6Z" fill="#34C759"/>
</svg>
