<svg width="132" height="132" viewBox="0 0 132 132" fill="none" xmlns="http://www.w3.org/2000/svg" xmlns:xlink="http://www.w3.org/1999/xlink">
<path d="M67.769,114.814L123.578,81.84C125.347,80.837 126.878,79.2 125.136,78.144L69.142,45.83C68.297,45.302 67.03,44.959 66.185,45.461L7.603,79.464C5.834,80.494 5.518,83.371 7.286,84.401L60.43,114.734C62.7,116.054 65.498,116.081 67.769,114.814Z" fill="#603CAC"/>
<path d="M64.178,23.258C47.52,23.258 34.03,36.749 34.03,53.407L34.03,75.108C34.03,87.542 47.52,97.601 64.178,97.601C80.837,97.601 94.327,87.542 94.327,75.108L94.327,53.407C94.301,36.749 80.81,23.258 64.178,23.258Z" fill="#3CAC6E"/>
<g opacity="0.3">
<path d="M83.398,30.175C83.794,36.062 84.348,41.923 84.612,47.81C85.298,63.73 83.239,81.84 70.726,93.218C68.825,94.908 66.766,96.386 64.522,97.574C80.995,97.442 94.301,87.41 94.301,75.082L94.301,53.354C94.327,44.405 90.314,35.904 83.398,30.175Z" fill="#000000"/>
</g>
<path d="M79.649,26.03C76.93,22.704 71.016,20.381 64.178,20.381C57.341,20.381 51.427,22.704 48.708,26.057L47.124,26.057L47.124,30.175C47.124,35.587 54.754,39.97 64.178,39.97C73.603,39.97 81.233,35.587 81.233,30.175L81.233,26.03L79.649,26.03Z" fill="#895630"/>
<g opacity="0.46">
<path d="M79.649,26.03C76.93,22.704 71.016,20.381 64.178,20.381C57.341,20.381 51.427,22.704 48.708,26.057L47.124,26.057L47.124,30.175C47.124,35.587 54.754,39.97 64.178,39.97C73.603,39.97 81.233,35.587 81.233,30.175L81.233,26.03L79.649,26.03Z" fill="#000000"/>
</g>
<path d="M64.178,35.825C73.597,35.825 81.233,31.44 81.233,26.03C81.233,20.621 73.597,16.236 64.178,16.236C54.759,16.236 47.124,20.621 47.124,26.03C47.124,31.44 54.759,35.825 64.178,35.825Z" fill="#895630"/>
<path d="M42.346,37.224C39.019,42.451 37.409,48.602 37.726,54.806C37.805,56.443 40.392,56.47 40.286,54.806C39.97,49.078 41.448,43.375 44.537,38.518C45.461,37.118 43.243,35.825 42.346,37.224Z" fill="#FFFFFF"/>
<path d="M39.151,57.473C38.438,57.499 37.884,58.054 37.858,58.766L37.858,58.898C37.831,59.611 38.386,60.218 39.072,60.245C39.758,60.271 40.392,59.717 40.418,59.03C40.418,59.004 40.418,58.951 40.418,58.925L40.418,58.793C40.418,58.054 39.864,57.473 39.151,57.473Z" fill="#FFFFFF"/>
<path d="M52.325,79.675L52.985,80.995L53.117,79.966Z" fill="#FCD11A"/>
<path d="M60.025,81.42C64.443,81.42 68.024,79.565 68.024,77.275C68.024,74.986 64.443,73.131 60.025,73.131C55.607,73.131 52.026,74.986 52.026,77.275C52.026,79.565 55.607,81.42 60.025,81.42Z" transform="rotate(-51.459 60.025 77.275)" fill="#FCD11A"/>
<path d="M66.739,72.732L67.241,73.814L66.739,73.814L66.739,72.732Z" fill="#FCD11A"/>
<path d="M59.526,80.361C63.943,80.361 67.525,78.505 67.525,76.216C67.525,73.927 63.943,72.071 59.526,72.071C55.108,72.071 51.526,73.927 51.526,76.216C51.526,78.505 55.108,80.361 59.526,80.361Z" transform="rotate(-51.459 59.526 76.216)" fill="#FEDE17"/>
<path d="M65.815,73.181C66.686,74.976 64.495,77.563 61.037,79.253C57.578,80.942 54.146,81.022 53.275,79.226C52.404,77.431 54.569,74.712 58.027,73.049C61.486,71.386 64.944,71.412 65.815,73.181Z" fill="#FEA500"/>
<path d="M59.875,75.425C60.377,76.058 60.377,76.586 59.506,77.273C58.634,77.959 57.684,78.118 56.892,77.801L56.206,78.329L55.704,78.038L56.39,77.484C55.994,77.167 55.757,76.692 55.783,76.19L57.13,75.715C57.103,76.058 57.209,76.428 57.446,76.666L58.265,76.006C57.737,75.372 57.737,74.844 58.582,74.158C59.426,73.471 60.403,73.286 61.195,73.63L61.591,73.313L62.093,73.603L61.67,73.92C61.987,74.158 62.172,74.554 62.146,74.95L60.826,75.451C60.826,75.187 60.746,74.95 60.588,74.765L59.875,75.425ZM58.582,76.877C58.766,76.718 58.793,76.613 58.661,76.375L57.895,76.982C58.106,77.088 58.37,77.035 58.582,76.877ZM59.532,75.082L60.271,74.501C60.06,74.395 59.796,74.422 59.585,74.58L59.558,74.58C59.4,74.712 59.374,74.844 59.532,75.082Z" fill="#FEDE17"/>
<path d="M76.428,78.566L75.794,79.886L76.692,79.385Z" fill="#FCD11A"/>
<path d="M83.069,91.137C85.358,91.137 87.213,87.555 87.213,83.137C87.213,78.72 85.358,75.138 83.069,75.138C80.78,75.138 78.924,78.72 78.924,83.137C78.924,87.555 80.78,91.137 83.069,91.137Z" transform="rotate(-127.818 83.069 83.137)" fill="#FCD11A"/>
<path d="M90.79,85.615L90.262,86.671L89.945,86.275L90.79,85.615Z" fill="#FCD11A"/>
<path d="M83.579,90.095C85.868,90.095 87.724,86.513 87.724,82.096C87.724,77.678 85.868,74.096 83.579,74.096C81.29,74.096 79.434,77.678 79.434,82.096C79.434,86.513 81.29,90.095 83.579,90.095Z" transform="rotate(-127.818 83.579 82.096)" fill="#FEDE17"/>
<path d="M89.839,85.166C88.968,86.962 85.562,86.856 82.13,85.166C78.698,83.477 76.481,80.837 77.352,79.068C78.223,77.299 81.708,77.299 85.166,78.989C88.625,80.678 90.71,83.371 89.839,85.166Z" fill="#FEA500"/>
<path d="M84.427,81.866C84.242,82.658 83.82,82.975 82.738,82.738C81.655,82.5 80.942,81.814 80.731,81.022L79.886,80.81L79.807,80.23L80.652,80.441C80.652,79.939 80.89,79.464 81.286,79.174L82.5,79.939C82.21,80.124 81.998,80.441 81.946,80.784L82.975,81.022C83.16,80.23 83.556,79.886 84.638,80.124C85.721,80.362 86.46,81.022 86.671,81.866L87.173,81.972L87.252,82.553L86.724,82.421C86.724,82.817 86.539,83.186 86.222,83.424L84.982,82.711C85.193,82.553 85.325,82.342 85.378,82.104L84.427,81.866ZM82.5,81.761C82.738,81.814 82.843,81.761 82.922,81.497L81.972,81.259C82.051,81.523 82.236,81.708 82.5,81.761ZM84.48,81.391L85.404,81.602C85.351,81.365 85.166,81.18 84.902,81.127L84.876,81.127C84.691,81.074 84.586,81.127 84.48,81.391Z" fill="#FEDE17"/>
<g opacity="0.5">
<path d="M53.935,20.856L53.935,20.724C53.935,19.642 54.806,18.77 55.889,18.77C56.232,18.77 56.575,18.85 56.866,19.034L75.108,29.674C75.715,30.017 76.085,30.65 76.085,31.363C76.085,32.446 75.214,33.317 74.131,33.317C73.788,33.317 73.445,33.238 73.154,33.053L54.938,22.546C54.305,22.202 53.935,21.542 53.935,20.856Z" fill="#000000"/>
</g>
<path d="M64.39,20.222C62.99,20.275 61.591,20.566 60.298,21.12C58.238,22.018 64.31,23.786 64.31,23.786Z" fill="#EA8B24"/>
<path d="M64.944,28.301C66.713,29.304 68.402,30.466 70.145,31.495C71.386,29.647 71.702,27.324 70.99,25.212C69.802,21.569 66.132,19.457 62.806,20.539C60.826,21.199 59.321,22.836 58.793,24.869C60.852,25.978 62.885,27.139 64.944,28.301Z" fill="#EA8B24"/>
<path d="M64.944,28.301C66.29,29.04 67.584,29.885 68.878,30.703C69.564,29.066 69.643,27.245 69.089,25.555C67.901,21.912 64.231,19.8 60.905,20.882C59.347,21.41 58.054,22.546 57.341,24.024C59.902,25.423 62.41,26.875 64.944,28.301Z" fill="#FFD008"/>
<path d="M68.429,30.254L68.033,29.99C67.082,29.383 66.079,28.75 65.076,28.195C64.337,27.799 63.624,27.377 62.911,26.954C61.38,26.083 59.796,25.186 58.212,24.314L58.08,24.288L58.133,24.182C59.4,21.516 62.594,20.381 65.261,21.648C65.419,21.727 65.551,21.806 65.71,21.886C68.534,23.549 69.722,27.06 68.482,30.096L68.429,30.254ZM58.45,24.182C59.981,25.027 61.538,25.898 63.043,26.743C63.756,27.166 64.495,27.562 65.208,27.984C66.211,28.538 67.214,29.172 68.165,29.779L68.297,29.858C69.406,26.954 68.244,23.681 65.578,22.097C63.175,20.645 60.06,21.437 58.608,23.839C58.555,23.945 58.502,24.05 58.45,24.182Z" fill="#EA8B24"/>
<path d="M64.944,28.301L65.287,28.512C65.287,28.169 65.182,27.826 64.997,27.562C64.786,27.298 64.522,27.086 64.205,26.954C63.888,26.822 63.598,26.717 63.281,26.638C63.017,26.558 62.753,26.453 62.515,26.294C62.33,26.189 62.198,25.978 62.198,25.766C62.198,25.582 62.304,25.397 62.436,25.291C62.621,25.159 62.832,25.08 63.07,25.106C63.281,25.106 63.492,25.159 63.703,25.265C63.835,25.318 63.967,25.423 64.099,25.502C64.152,25.555 64.205,25.608 64.258,25.661L65.102,24.816L64.944,24.658C64.786,24.526 64.627,24.394 64.442,24.288C64.205,24.156 63.941,24.05 63.65,23.971L63.677,23.1L62.489,23.074L62.462,23.945C61.987,23.998 61.538,24.235 61.222,24.578C60.931,24.895 60.746,25.291 60.746,25.74C60.746,25.819 60.746,25.872 60.746,25.951C62.146,26.717 63.545,27.509 64.944,28.301Z" fill="#EA8B24"/>
<path d="M50.582,86.962L51.242,88.255L51.374,87.226Z" fill="#FCD11A"/>
<path d="M58.291,88.703C62.709,88.703 66.291,86.848 66.291,84.559C66.291,82.269 62.709,80.414 58.291,80.414C53.874,80.414 50.292,82.269 50.292,84.559C50.292,86.848 53.874,88.703 58.291,88.703Z" transform="rotate(-51.459 58.291 84.559)" fill="#FCD11A"/>
<path d="M64.997,80.018L65.498,81.074L64.997,81.074L64.997,80.018Z" fill="#FCD11A"/>
<path d="M57.779,87.618C62.197,87.618 65.779,85.762 65.779,83.473C65.779,81.184 62.197,79.329 57.779,79.329C53.362,79.329 49.78,81.184 49.78,83.473C49.78,85.762 53.362,87.618 57.779,87.618Z" transform="rotate(-51.459 57.779 83.473)" fill="#FEDE17"/>
<path d="M64.046,80.467C64.918,82.262 62.726,84.85 59.268,86.539C55.81,88.229 52.378,88.308 51.506,86.513C50.635,84.718 52.8,81.998 56.258,80.335C59.717,78.672 63.202,78.672 64.046,80.467Z" fill="#FEA500"/>
<path d="M58.106,82.685C58.608,83.318 58.608,83.846 57.737,84.533C56.866,85.219 55.915,85.378 55.123,85.061L54.437,85.589L53.935,85.298L54.622,84.744C54.226,84.427 53.988,83.952 54.014,83.45L55.361,82.975C55.334,83.318 55.44,83.662 55.678,83.926L56.496,83.266C55.968,82.632 55.968,82.104 56.813,81.418C57.658,80.731 58.634,80.546 59.426,80.89L59.822,80.573L60.324,80.863L59.902,81.18C60.218,81.418 60.377,81.787 60.377,82.183L59.057,82.711C59.057,82.474 58.978,82.21 58.819,82.025L58.106,82.685ZM56.839,84.137C57.024,83.978 57.05,83.873 56.918,83.635L56.153,84.242C56.364,84.348 56.628,84.322 56.839,84.137ZM57.79,82.342L58.529,81.761C58.318,81.655 58.054,81.682 57.842,81.84C57.684,81.998 57.631,82.104 57.79,82.342Z" fill="#FEDE17"/>
<path d="M43.666,64.838L43.058,66.158L43.93,65.657Z" fill="#FCD11A"/>
<path d="M50.313,77.421C52.603,77.421 54.458,73.84 54.458,69.422C54.458,65.004 52.603,61.423 50.313,61.423C48.024,61.423 46.169,65.004 46.169,69.422C46.169,73.84 48.024,77.421 50.313,77.421Z" transform="rotate(-127.818 50.313 69.422)" fill="#FCD11A"/>
<path d="M58.027,71.887L57.499,72.943L57.182,72.547L58.027,71.887Z" fill="#FCD11A"/>
<path d="M50.835,76.356C53.124,76.356 54.98,72.774 54.98,68.356C54.98,63.939 53.124,60.357 50.835,60.357C48.546,60.357 46.69,63.939 46.69,68.356C46.69,72.774 48.546,76.356 50.835,76.356Z" transform="rotate(-127.818 50.835 68.356)" fill="#FEDE17"/>
<path d="M57.103,71.438C56.232,73.234 52.826,73.128 49.394,71.438C45.962,69.749 43.745,67.109 44.616,65.34C45.487,63.571 48.972,63.571 52.43,65.261C55.889,66.95 57.974,69.643 57.103,71.438Z" fill="#FEA500"/>
<path d="M51.665,68.138C51.48,68.93 51.058,69.247 49.975,69.01C48.893,68.772 48.18,68.086 47.969,67.294L47.124,67.082L47.045,66.502L47.916,66.713C47.916,66.211 48.154,65.736 48.55,65.446L49.764,66.211C49.474,66.396 49.262,66.713 49.21,67.056L50.239,67.294C50.424,66.475 50.82,66.158 51.902,66.396C52.985,66.634 53.724,67.267 53.935,68.138L54.437,68.244L54.516,68.825L54.014,68.693C54.014,69.089 53.83,69.458 53.513,69.696L52.298,68.983C52.51,68.825 52.642,68.614 52.694,68.376L51.665,68.138ZM49.738,68.033C49.975,68.086 50.081,68.033 50.16,67.769L49.21,67.531C49.289,67.795 49.474,67.98 49.738,68.033ZM51.744,67.663L52.668,67.874C52.615,67.637 52.43,67.452 52.193,67.399L52.166,67.399C51.929,67.346 51.823,67.399 51.744,67.663Z" fill="#FEDE17"/>
<path d="M93.192,70.409C93.06,68.904 92.638,67.426 91.978,66.053C90.895,63.888 89.338,70.567 89.338,70.567Z" fill="#EA8B24"/>
<path d="M85.784,78.333C89.939,78.333 93.308,75.248 93.308,71.442C93.308,67.637 89.939,64.552 85.784,64.552C81.628,64.552 78.26,67.637 78.26,71.442C78.26,75.248 81.628,78.333 85.784,78.333Z" transform="rotate(-42.579 85.784 71.442)" fill="#EA8B24"/>
<path d="M85.248,76.274C89.403,76.274 92.772,73.189 92.772,69.384C92.772,65.578 89.403,62.493 85.248,62.493C81.093,62.493 77.724,65.578 77.724,69.384C77.724,73.189 81.093,76.274 85.248,76.274Z" transform="rotate(-42.579 85.248 69.384)" fill="#FFD008"/>
<path d="M84.85,75.636C84.005,75.636 83.186,75.478 82.394,75.187C79.385,74.078 77.827,70.752 78.936,67.742C79.015,67.505 79.121,67.294 79.226,67.056C80.89,63.835 84.691,62.357 88.097,63.598C91.106,64.706 92.664,68.033 91.555,71.042C91.476,71.28 91.37,71.491 91.265,71.729C90.473,73.286 89.126,74.501 87.49,75.134C86.645,75.451 85.747,75.636 84.85,75.636ZM85.642,63.413C84.77,63.413 83.926,63.571 83.107,63.888C81.523,64.495 80.23,65.657 79.464,67.162C78.065,69.881 79.121,73.234 81.84,74.633C82.051,74.738 82.262,74.844 82.5,74.923C85.774,76.111 89.443,74.686 91.027,71.597C92.426,68.878 91.37,65.525 88.651,64.126C88.44,64.02 88.229,63.914 87.991,63.835C87.252,63.545 86.46,63.413 85.642,63.413Z" fill="#EA8B24"/>
<path d="M88.836,70.699C88.757,70.91 88.625,71.095 88.466,71.254L88.308,71.412L87.331,70.567C87.384,70.541 87.437,70.462 87.49,70.409C87.595,70.277 87.674,70.118 87.727,69.96C87.833,69.749 87.859,69.511 87.859,69.274C87.859,69.036 87.78,68.798 87.622,68.614C87.49,68.455 87.305,68.376 87.094,68.376C86.856,68.402 86.645,68.534 86.566,68.746C86.434,69.01 86.302,69.3 86.249,69.617C86.17,69.96 86.064,70.277 85.958,70.62C85.853,70.963 85.642,71.254 85.351,71.491C85.034,71.755 84.638,71.887 84.242,71.887C83.741,71.914 83.266,71.755 82.87,71.438C82.474,71.095 82.183,70.62 82.078,70.092L81.127,70.118L81.074,68.825L81.998,68.798C82.025,68.534 82.078,68.297 82.157,68.059C82.236,67.848 82.315,67.663 82.421,67.478C82.5,67.32 82.579,67.188 82.685,67.056C82.738,66.95 82.817,66.871 82.896,66.792L83.002,66.713L83.926,67.558C83.873,67.61 83.82,67.663 83.741,67.769C83.609,67.927 83.503,68.138 83.424,68.323C83.292,68.614 83.239,68.904 83.266,69.221C83.266,69.511 83.371,69.802 83.556,70.039C83.714,70.224 83.952,70.33 84.216,70.303C84.454,70.303 84.665,70.145 84.77,69.934C84.929,69.67 85.034,69.379 85.087,69.062C85.166,68.719 85.272,68.376 85.378,68.059C85.483,67.716 85.694,67.426 85.985,67.188C86.302,66.924 86.698,66.792 87.094,66.792C87.569,66.766 88.018,66.924 88.387,67.241C88.783,67.584 89.047,68.033 89.153,68.534L90.103,68.508L90.156,69.802L89.206,69.828C89.1,70.118 88.994,70.435 88.836,70.699Z" fill="#EA8B24"/>
<path d="M60.166,80.494L59.532,81.814L60.43,81.286Z" fill="#FCD11A"/>
<path d="M66.818,93.06C69.107,93.06 70.963,89.478 70.963,85.06C70.963,80.643 69.107,77.061 66.818,77.061C64.529,77.061 62.673,80.643 62.673,85.06C62.673,89.478 64.529,93.06 66.818,93.06Z" transform="rotate(-127.818 66.818 85.06)" fill="#FCD11A"/>
<path d="M74.501,87.516L73.999,88.572L73.682,88.176L74.501,87.516Z" fill="#FCD11A"/>
<path d="M67.331,92.015C69.62,92.015 71.475,88.433 71.475,84.015C71.475,79.598 69.62,76.016 67.331,76.016C65.042,76.016 63.186,79.598 63.186,84.015C63.186,88.433 65.042,92.015 67.331,92.015Z" transform="rotate(-127.818 67.331 84.015)" fill="#FEDE17"/>
<path d="M73.577,87.067C72.706,88.862 69.3,88.757 65.842,87.067C62.383,85.378 60.192,82.738 61.063,80.969C61.934,79.2 65.419,79.2 68.878,80.89C72.336,82.579 74.448,85.272 73.577,87.067Z" fill="#FEA500"/>
<path d="M68.165,83.794C67.98,84.586 67.558,84.902 66.475,84.665C65.393,84.427 64.68,83.741 64.469,82.949L63.624,82.738L63.545,82.157L64.39,82.368C64.39,81.866 64.627,81.391 65.023,81.101L66.238,81.866C65.947,82.051 65.736,82.368 65.683,82.711L66.713,82.949C66.898,82.157 67.294,81.814 68.376,82.051C69.458,82.315 70.198,82.949 70.409,83.794L70.91,83.899L70.99,84.48L70.462,84.348C70.462,84.744 70.277,85.114 69.96,85.351L68.746,84.638C68.957,84.48 69.089,84.269 69.142,84.031L68.165,83.794ZM66.238,83.662C66.475,83.714 66.581,83.662 66.66,83.398L65.71,83.16C65.762,83.424 65.974,83.609 66.238,83.662ZM68.218,83.292L69.142,83.503C69.089,83.266 68.904,83.081 68.64,83.028C68.429,82.975 68.323,83.028 68.218,83.292Z" fill="#FEDE17"/>
<path d="M40.181,84.216L39.574,85.51L40.471,85.008Z" fill="#FCD11A"/>
<path d="M46.846,96.755C49.135,96.755 50.991,93.174 50.991,88.756C50.991,84.338 49.135,80.757 46.846,80.757C44.557,80.757 42.701,84.338 42.701,88.756C42.701,93.174 44.557,96.755 46.846,96.755Z" transform="rotate(-127.818 46.846 88.756)" fill="#FCD11A"/>
<path d="M54.542,91.238L54.041,92.294L53.724,91.898L54.542,91.238Z" fill="#FCD11A"/>
<path d="M47.356,95.713C49.645,95.713 51.501,92.132 51.501,87.714C51.501,83.296 49.645,79.715 47.356,79.715C45.067,79.715 43.211,83.296 43.211,87.714C43.211,92.132 45.067,95.713 47.356,95.713Z" transform="rotate(-127.818 47.356 87.714)" fill="#FEDE17"/>
<path d="M53.618,90.79C52.747,92.585 49.342,92.479 45.883,90.79C42.425,89.1 40.234,86.46 41.105,84.691C41.976,82.922 45.461,82.922 48.919,84.612C52.378,86.302 54.49,88.994 53.618,90.79Z" fill="#FEA500"/>
<path d="M48.206,87.49C48.022,88.282 47.599,88.598 46.517,88.361C45.434,88.123 44.722,87.437 44.484,86.645L43.639,86.434L43.56,85.853L44.405,86.064C44.405,85.562 44.642,85.087 45.038,84.797L46.253,85.562C45.962,85.747 45.751,86.064 45.698,86.407L46.728,86.645C46.913,85.853 47.309,85.51 48.391,85.747C49.474,85.985 50.213,86.645 50.424,87.49L50.926,87.595L51.005,88.176L50.477,88.044C50.477,88.44 50.292,88.81 49.975,89.047L48.761,88.334C48.972,88.176 49.104,87.965 49.157,87.727L48.206,87.49ZM46.253,87.384C46.49,87.437 46.596,87.384 46.675,87.12L45.725,86.882C45.804,87.12 45.989,87.305 46.253,87.384ZM48.259,86.988L49.183,87.199C49.13,86.962 48.946,86.777 48.682,86.724L48.655,86.724C48.47,86.671 48.338,86.724 48.259,86.988Z" fill="#FEDE17"/>
<path d="M55.097,87.305L54.49,88.598L55.361,88.097Z" fill="#FCD11A"/>
<path d="M61.766,99.879C64.055,99.879 65.911,96.297 65.911,91.88C65.911,87.462 64.055,83.88 61.766,83.88C59.477,83.88 57.621,87.462 57.621,91.88C57.621,96.297 59.477,99.879 61.766,99.879Z" transform="rotate(-127.818 61.766 91.88)" fill="#FCD11A"/>
<path d="M69.458,94.327L68.93,95.383L68.64,94.987L69.458,94.327Z" fill="#FCD11A"/>
<path d="M62.288,98.813C64.577,98.813 66.433,95.232 66.433,90.814C66.433,86.396 64.577,82.815 62.288,82.815C59.999,82.815 58.143,86.396 58.143,90.814C58.143,95.232 59.999,98.813 62.288,98.813Z" transform="rotate(-127.818 62.288 90.814)" fill="#FEDE17"/>
<path d="M68.534,93.878C67.663,95.674 64.258,95.568 60.799,93.878C57.341,92.189 55.15,89.549 56.021,87.78C56.892,86.011 60.377,86.011 63.835,87.701C67.294,89.39 69.406,92.083 68.534,93.878Z" fill="#FEA500"/>
<path d="M63.096,90.578C62.911,91.37 62.489,91.687 61.406,91.45C60.324,91.212 59.611,90.526 59.374,89.734L58.529,89.522L58.45,88.968L59.294,89.179C59.294,88.678 59.532,88.202 59.928,87.912L61.142,88.678C60.852,88.862 60.641,89.179 60.588,89.522L61.618,89.76C61.802,88.968 62.198,88.625 63.281,88.862C64.363,89.1 65.102,89.734 65.314,90.605L65.815,90.71L65.894,91.291L65.393,91.159C65.393,91.555 65.208,91.925 64.891,92.162L63.677,91.45C63.888,91.291 64.02,91.08 64.073,90.842L63.096,90.578ZM61.169,90.473C61.406,90.526 61.512,90.473 61.591,90.209L60.641,89.971C60.72,90.235 60.905,90.42 61.169,90.473ZM63.175,90.103L64.099,90.314C64.046,90.077 63.862,89.892 63.598,89.839L63.571,89.839C63.36,89.786 63.254,89.839 63.175,90.103Z" fill="#FEDE17"/>
<path d="M67.584,83.266L66.977,84.559L67.874,84.058Z" fill="#FCD11A"/>
<path d="M74.248,95.807C76.537,95.807 78.393,92.226 78.393,87.808C78.393,83.39 76.537,79.809 74.248,79.809C71.959,79.809 70.104,83.39 70.104,87.808C70.104,92.226 71.959,95.807 74.248,95.807Z" transform="rotate(-127.818 74.248 87.808)" fill="#FCD11A"/>
<path d="M81.946,90.288L81.444,91.344L81.127,90.948L81.946,90.288Z" fill="#FCD11A"/>
<path d="M74.758,94.762C77.047,94.762 78.903,91.181 78.903,86.763C78.903,82.345 77.047,78.764 74.758,78.764C72.469,78.764 70.614,82.345 70.614,86.763C70.614,91.181 72.469,94.762 74.758,94.762Z" transform="rotate(-127.818 74.758 86.763)" fill="#FEDE17"/>
<path d="M81.022,89.839C80.15,91.634 76.745,91.529 73.313,89.839C69.881,88.15 67.663,85.51 68.534,83.741C69.406,81.972 72.89,81.972 76.349,83.662C79.807,85.351 81.893,88.044 81.022,89.839Z" fill="#FEA500"/>
<path d="M75.61,86.539C75.425,87.331 75.002,87.648 73.92,87.41C72.838,87.173 72.125,86.486 71.914,85.694L71.069,85.483L70.99,84.902L71.834,85.114C71.834,84.612 72.072,84.137 72.468,83.846L73.682,84.612C73.392,84.797 73.181,85.114 73.128,85.457L74.158,85.694C74.342,84.902 74.738,84.559 75.821,84.797C76.903,85.034 77.642,85.694 77.854,86.539L78.355,86.645L78.434,87.226L77.906,87.094C77.906,87.49 77.722,87.859 77.405,88.097L76.19,87.358C76.402,87.199 76.534,86.988 76.586,86.75L75.61,86.539ZM73.656,86.434C73.894,86.486 73.999,86.434 74.078,86.17L73.128,85.932C73.207,86.196 73.418,86.381 73.656,86.434ZM75.662,86.038L76.586,86.249C76.534,86.011 76.349,85.826 76.111,85.774L76.085,85.774C75.874,85.747 75.742,85.8 75.662,86.038Z" fill="#FEDE17"/>
<path d="M72.97,72.283L72.336,73.603L73.234,73.075Z" fill="#FCD11A"/>
<path d="M79.625,84.854C81.914,84.854 83.769,81.273 83.769,76.855C83.769,72.437 81.914,68.856 79.625,68.856C77.336,68.856 75.48,72.437 75.48,76.855C75.48,81.273 77.336,84.854 79.625,84.854Z" transform="rotate(-127.818 79.625 76.855)" fill="#FCD11A"/>
<path d="M87.331,79.332L86.803,80.388L86.486,79.966L87.331,79.332Z" fill="#FCD11A"/>
<path d="M80.146,83.786C82.435,83.786 84.291,80.205 84.291,75.787C84.291,71.369 82.435,67.788 80.146,67.788C77.857,67.788 76.001,71.369 76.001,75.787C76.001,80.205 77.857,83.786 80.146,83.786Z" transform="rotate(-127.818 80.146 75.787)" fill="#FEDE17"/>
<path d="M86.381,78.857C85.51,80.652 82.104,80.546 78.672,78.857C75.24,77.167 73.022,74.527 73.894,72.758C74.765,70.99 78.25,70.99 81.708,72.679C85.166,74.369 87.278,77.088 86.381,78.857Z" fill="#FEA500"/>
<path d="M80.969,75.583C80.784,76.375 80.362,76.692 79.279,76.454C78.197,76.217 77.484,75.53 77.246,74.738L76.402,74.527L76.322,73.946L77.167,74.158C77.167,73.656 77.405,73.181 77.801,72.89L79.015,73.656C78.725,73.841 78.514,74.158 78.461,74.501L79.49,74.738C79.675,73.946 80.071,73.603 81.154,73.841C82.236,74.078 82.975,74.738 83.186,75.583L83.688,75.689L83.767,76.27L83.239,76.138C83.239,76.534 83.054,76.903 82.738,77.141L81.523,76.428C81.734,76.27 81.866,76.058 81.919,75.821L80.969,75.583ZM79.042,75.478C79.279,75.53 79.385,75.478 79.464,75.214L78.514,74.976C78.593,75.214 78.778,75.398 79.042,75.478ZM81.048,75.082L81.972,75.293C81.919,75.055 81.734,74.87 81.47,74.818L81.444,74.818C81.233,74.765 81.127,74.818 81.048,75.082Z" fill="#FEDE17"/>
<path d="M36.485,68.244L35.851,69.564L36.749,69.036Z" fill="#FCD11A"/>
<path d="M43.141,80.809C45.43,80.809 47.286,77.228 47.286,72.81C47.286,68.392 45.43,64.811 43.141,64.811C40.852,64.811 38.996,68.392 38.996,72.81C38.996,77.228 40.852,80.809 43.141,80.809Z" transform="rotate(-127.818 43.141 72.81)" fill="#FCD11A"/>
<path d="M50.846,75.266L50.318,76.322L50.002,75.926L50.846,75.266Z" fill="#FCD11A"/>
<path d="M43.663,79.743C45.952,79.743 47.807,76.162 47.807,71.744C47.807,67.326 45.952,63.745 43.663,63.745C41.374,63.745 39.518,67.326 39.518,71.744C39.518,76.162 41.374,79.743 43.663,79.743Z" transform="rotate(-127.818 43.663 71.744)" fill="#FEDE17"/>
<path d="M49.896,74.818C49.025,76.613 45.619,76.507 42.187,74.818C38.755,73.128 36.538,70.488 37.409,68.719C38.28,66.95 41.765,66.95 45.223,68.64C48.682,70.33 50.794,73.022 49.896,74.818Z" fill="#FEA500"/>
<path d="M44.484,71.518C44.299,72.31 43.877,72.626 42.794,72.389C41.712,72.151 40.999,71.465 40.788,70.673L39.943,70.462L39.864,69.881L40.735,70.092C40.735,69.59 40.973,69.115 41.369,68.825L42.583,69.59C42.293,69.775 42.082,70.092 42.029,70.435L43.058,70.673C43.243,69.881 43.639,69.538 44.722,69.775C45.804,70.013 46.543,70.673 46.754,71.518L47.256,71.623L47.335,72.204L46.834,72.072C46.834,72.468 46.649,72.838 46.332,73.075L45.118,72.362C45.329,72.204 45.461,71.993 45.514,71.755L44.484,71.518ZM42.557,71.412C42.794,71.465 42.9,71.412 42.979,71.174L42.029,70.937C42.108,71.174 42.293,71.359 42.557,71.412ZM44.563,71.042L45.487,71.254C45.434,71.016 45.25,70.831 45.012,70.778L44.986,70.778C44.748,70.726 44.642,70.778 44.563,71.042Z" fill="#FEDE17"/>
<path d="M41.738,70.25C40.445,71.069 39.336,72.125 38.438,73.339C37.013,75.319 43.666,73.603 43.666,73.603Z" fill="#EA8B24"/>
<path d="M46.066,83.875C49.871,83.875 52.956,80.507 52.956,76.351C52.956,72.196 49.871,68.827 46.066,68.827C42.26,68.827 39.175,72.196 39.175,76.351C39.175,80.507 42.26,83.875 46.066,83.875Z" transform="rotate(-97.557 46.066 76.351)" fill="#EA8B24"/>
<path d="M44.515,85.29C48.321,85.29 51.406,81.922 51.406,77.766C51.406,73.611 48.321,70.242 44.515,70.242C40.71,70.242 37.625,73.611 37.625,77.766C37.625,81.922 40.71,85.29 44.515,85.29Z" transform="rotate(-97.557 44.515 77.766)" fill="#FFD008"/>
<path d="M45.065,84.19C43.349,84.19 41.712,83.556 40.445,82.394C37.646,79.939 37.198,75.874 39.442,73.313C40.55,72.072 42.134,71.333 43.798,71.333C45.54,71.306 47.256,71.94 48.55,73.102C51.348,75.557 51.797,79.622 49.553,82.183C48.444,83.424 46.86,84.163 45.197,84.163L45.065,84.19ZM40.603,82.21C41.87,83.345 43.507,83.952 45.197,83.926C46.781,83.926 48.312,83.239 49.368,82.025C51.506,79.57 51.058,75.689 48.391,73.313C47.124,72.178 45.487,71.57 43.798,71.597C42.214,71.597 40.682,72.283 39.626,73.471C37.488,75.953 37.937,79.834 40.603,82.21Z" fill="#EA8B24"/>
<path d="M44.009,73.973C44.22,73.973 44.458,73.973 44.669,74.026L44.88,74.105L44.59,75.372C44.51,75.346 44.431,75.319 44.378,75.319C44.22,75.293 44.035,75.293 43.877,75.319C43.639,75.319 43.402,75.398 43.19,75.53C42.979,75.636 42.794,75.821 42.715,76.058C42.636,76.243 42.662,76.454 42.742,76.639C42.874,76.85 43.085,76.956 43.322,76.956C43.639,76.956 43.93,76.93 44.22,76.85C44.563,76.771 44.906,76.692 45.25,76.639C45.619,76.586 45.962,76.639 46.306,76.771C46.675,76.93 46.992,77.22 47.177,77.563C47.441,77.986 47.52,78.487 47.414,78.989C47.309,79.517 46.992,79.966 46.596,80.309L47.071,81.127L45.962,81.761L45.514,80.969C45.276,81.048 45.038,81.127 44.774,81.18C44.563,81.206 44.352,81.233 44.114,81.233C43.956,81.233 43.771,81.206 43.613,81.18C43.507,81.154 43.375,81.154 43.27,81.101L43.138,81.048L43.481,79.834L43.745,79.913C43.956,79.939 44.167,79.939 44.378,79.939C44.695,79.913 44.986,79.834 45.25,79.675C45.514,79.543 45.725,79.332 45.857,79.042C45.962,78.804 45.936,78.54 45.804,78.329C45.672,78.118 45.461,78.012 45.223,78.012C44.906,78.012 44.616,78.038 44.299,78.118C43.956,78.197 43.613,78.276 43.27,78.329C42.9,78.382 42.557,78.329 42.214,78.197C41.844,78.038 41.554,77.748 41.342,77.405C41.105,77.009 41.026,76.534 41.131,76.058C41.237,75.557 41.527,75.108 41.95,74.791L41.474,73.946L42.583,73.313L43.058,74.131C43.402,74.026 43.692,73.973 44.009,73.973Z" fill="#EA8B24"/>
<path d="M68.534,67.162C67.003,67.241 65.525,67.61 64.126,68.218C61.908,69.221 68.534,71.016 68.534,71.016Z" fill="#EA8B24"/>
<path d="M69.304,82.153C73.109,82.153 76.194,78.784 76.194,74.629C76.194,70.473 73.109,67.105 69.304,67.105C65.499,67.105 62.414,70.473 62.414,74.629C62.414,78.784 65.499,82.153 69.304,82.153Z" transform="rotate(-38.464 69.304 74.629)" fill="#EA8B24"/>
<path d="M67.242,82.603C71.047,82.603 74.132,79.234 74.132,75.079C74.132,70.923 71.047,67.555 67.242,67.555C63.437,67.555 60.352,70.923 60.352,75.079C60.352,79.234 63.437,82.603 67.242,82.603Z" transform="rotate(-38.464 67.242 75.079)" fill="#FFD008"/>
<path d="M67.584,81.761C64.944,81.761 62.41,79.939 61.406,77.114C60.192,73.603 61.802,69.854 64.997,68.719C66.581,68.191 68.323,68.35 69.775,69.168C72.943,70.937 74.263,74.791 72.917,78.144C72.283,79.675 71.016,80.89 69.458,81.444C68.851,81.655 68.218,81.761 67.584,81.761ZM61.67,77.035C62.832,80.414 66.29,82.262 69.379,81.206C70.884,80.678 72.098,79.517 72.679,78.038C73.999,74.818 72.706,71.095 69.67,69.379C68.27,68.587 66.634,68.455 65.102,68.957C62.04,70.039 60.509,73.656 61.67,77.035Z" fill="#EA8B24"/>
<path d="M68.693,71.544C68.904,71.65 69.089,71.782 69.247,71.914L69.406,72.072L68.534,73.022C68.482,72.97 68.429,72.917 68.376,72.864C68.244,72.758 68.086,72.679 67.954,72.6C67.742,72.494 67.505,72.442 67.267,72.442C67.03,72.442 66.792,72.494 66.581,72.653C66.422,72.785 66.317,72.97 66.317,73.181C66.317,73.418 66.449,73.63 66.66,73.735C66.924,73.894 67.214,73.999 67.505,74.078C67.848,74.184 68.165,74.29 68.508,74.422C68.851,74.554 69.142,74.765 69.353,75.055C69.59,75.372 69.722,75.768 69.722,76.164C69.722,76.666 69.564,77.141 69.221,77.51C68.851,77.906 68.376,78.17 67.848,78.25L67.848,79.2L66.581,79.2L66.581,78.276C66.317,78.25 66.079,78.17 65.842,78.091C65.63,78.012 65.446,77.933 65.261,77.801C65.129,77.722 64.97,77.616 64.838,77.51C64.733,77.431 64.654,77.352 64.574,77.273L64.495,77.167L65.393,76.27C65.446,76.322 65.498,76.402 65.578,76.481C65.736,76.613 65.921,76.718 66.132,76.798C66.396,76.93 66.713,77.009 67.03,77.009C67.32,77.035 67.637,76.93 67.874,76.745C68.059,76.586 68.191,76.349 68.165,76.111C68.165,75.874 68.033,75.662 67.822,75.557C67.558,75.398 67.267,75.293 66.977,75.214C66.634,75.108 66.317,75.002 65.974,74.897C65.63,74.765 65.34,74.554 65.129,74.263C64.891,73.946 64.759,73.55 64.786,73.154C64.786,72.679 64.97,72.23 65.287,71.887C65.63,71.518 66.106,71.254 66.607,71.174L66.607,70.224L67.901,70.224L67.901,71.174C68.112,71.28 68.402,71.386 68.693,71.544Z" fill="#EA8B24"/>
<path d="M56.866,47.942L56.258,49.236L57.156,48.734Z" fill="#FCD11A"/>
<path d="M63.548,60.494C65.837,60.494 67.693,56.913 67.693,52.495C67.693,48.077 65.837,44.496 63.548,44.496C61.259,44.496 59.404,48.077 59.404,52.495C59.404,56.913 61.259,60.494 63.548,60.494Z" transform="rotate(-127.818 63.548 52.495)" fill="#FCD11A"/>
<path d="M71.227,54.965L70.726,56.021L70.409,55.625L71.227,54.965Z" fill="#FCD11A"/>
<path d="M64.06,59.455C66.349,59.455 68.205,55.873 68.205,51.455C68.205,47.037 66.349,43.456 64.06,43.456C61.771,43.456 59.915,47.037 59.915,51.455C59.915,55.873 61.771,59.455 64.06,59.455Z" transform="rotate(-127.818 64.06 51.455)" fill="#FEDE17"/>
<path d="M70.303,54.516C69.432,56.311 66.026,56.206 62.594,54.516C59.162,52.826 56.945,50.186 57.842,48.391C58.74,46.596 62.198,46.622 65.657,48.312C69.062,50.002 71.174,52.721 70.303,54.516Z" fill="#FEA500"/>
<path d="M64.891,51.216C64.706,52.008 64.284,52.325 63.202,52.087C62.119,51.85 61.406,51.163 61.169,50.371L60.324,50.16L60.245,49.606L61.09,49.817C61.09,49.315 61.327,48.84 61.723,48.55L62.938,49.315C62.647,49.5 62.436,49.817 62.383,50.16L63.413,50.398C63.598,49.606 63.994,49.262 65.076,49.5C66.158,49.738 66.898,50.371 67.109,51.242L67.61,51.348L67.69,51.929L67.162,51.797C67.162,52.193 66.977,52.562 66.66,52.8L65.446,52.087C65.657,51.929 65.789,51.718 65.842,51.48L64.891,51.216ZM62.938,51.11C63.175,51.163 63.281,51.11 63.36,50.873L62.41,50.635C62.489,50.873 62.674,51.058 62.938,51.11ZM64.944,50.741L65.868,50.952C65.815,50.714 65.63,50.53 65.366,50.477L65.34,50.477C65.155,50.424 65.023,50.477 64.944,50.741Z" fill="#FEDE17"/>
<path d="M20.434,84.48C24.399,84.48 27.614,82.589 27.614,80.256C27.614,77.923 24.399,76.032 20.434,76.032C16.468,76.032 13.253,77.923 13.253,80.256C13.253,82.589 16.468,84.48 20.434,84.48Z" fill="#FCD11A"/>
<path d="M13.253,80.256L13.253,79.042L14.045,80.018L13.253,80.256Z" fill="#FCD11A"/>
<path d="M27.641,79.042L27.641,80.256L26.717,80.256L27.403,79.279L27.641,79.042Z" fill="#FCD11A"/>
<path d="M20.434,83.318C24.399,83.318 27.614,81.427 27.614,79.094C27.614,76.762 24.399,74.87 20.434,74.87C16.468,74.87 13.253,76.762 13.253,79.094C13.253,81.427 16.468,83.318 20.434,83.318Z" fill="#FEDE17"/>
<path d="M20.46,82.632C23.799,82.632 26.506,81.048 26.506,79.094C26.506,77.141 23.799,75.557 20.46,75.557C17.121,75.557 14.414,77.141 14.414,79.094C14.414,81.048 17.121,82.632 20.46,82.632Z" fill="#FEA500"/>
<path d="M23.971,77.88C24.024,77.986 24.05,78.091 24.024,78.197L23.998,78.302L22.678,78.302C22.678,78.276 22.704,78.223 22.704,78.197C22.704,78.118 22.678,78.038 22.625,77.959C22.546,77.827 22.44,77.722 22.308,77.669C22.123,77.563 21.912,77.51 21.701,77.51C21.49,77.51 21.305,77.537 21.12,77.59C20.935,77.669 20.856,77.774 20.909,77.906C20.962,78.065 21.067,78.197 21.199,78.329C21.331,78.461 21.463,78.619 21.595,78.778C21.727,78.91 21.754,79.121 21.674,79.279C21.542,79.517 21.305,79.702 21.041,79.781C20.592,79.966 20.117,80.071 19.642,80.071C19.114,80.098 18.612,80.018 18.11,79.86L17.345,80.177L16.474,79.754L17.213,79.438C17.081,79.358 16.975,79.253 16.87,79.121C16.79,79.042 16.738,78.936 16.685,78.83C16.658,78.751 16.632,78.672 16.632,78.593C16.632,78.54 16.632,78.487 16.632,78.434L16.658,78.382L17.978,78.382C17.952,78.434 17.952,78.461 17.952,78.514C17.952,78.619 18.005,78.725 18.058,78.804C18.163,78.962 18.322,79.094 18.506,79.174C18.744,79.279 19.008,79.358 19.272,79.358C19.51,79.385 19.747,79.332 19.985,79.253C20.17,79.174 20.222,79.068 20.196,78.936C20.143,78.778 20.038,78.646 19.906,78.514C19.774,78.382 19.615,78.223 19.51,78.065C19.404,77.933 19.378,77.722 19.457,77.563C19.615,77.326 19.853,77.141 20.117,77.062C20.539,76.903 20.988,76.798 21.463,76.798C21.938,76.771 22.44,76.85 22.889,77.009L23.628,76.692L24.446,77.141L23.681,77.458C23.813,77.563 23.918,77.722 23.971,77.88Z" fill="#FEDE17"/>
<path d="M20.434,82.183C24.399,82.183 27.614,80.292 27.614,77.959C27.614,75.626 24.399,73.735 20.434,73.735C16.468,73.735 13.253,75.626 13.253,77.959C13.253,80.292 16.468,82.183 20.434,82.183Z" fill="#FCD11A"/>
<path d="M13.253,77.959L13.253,76.745L14.045,77.722L13.253,77.959Z" fill="#FCD11A"/>
<path d="M27.641,76.745L27.641,77.959L26.717,77.959L27.403,76.982L27.641,76.745Z" fill="#FCD11A"/>
<path d="M20.434,81.022C24.399,81.022 27.614,79.13 27.614,76.798C27.614,74.465 24.399,72.574 20.434,72.574C16.468,72.574 13.253,74.465 13.253,76.798C13.253,79.13 16.468,81.022 20.434,81.022Z" fill="#FEDE17"/>
<path d="M20.46,80.335C23.799,80.335 26.506,78.751 26.506,76.798C26.506,74.844 23.799,73.26 20.46,73.26C17.121,73.26 14.414,74.844 14.414,76.798C14.414,78.751 17.121,80.335 20.46,80.335Z" fill="#FEA500"/>
<path d="M23.971,75.583C24.024,75.689 24.05,75.794 24.024,75.9L23.998,76.006L22.678,76.006C22.678,75.979 22.704,75.926 22.704,75.9C22.704,75.821 22.678,75.742 22.625,75.662C22.546,75.53 22.44,75.425 22.308,75.372C22.123,75.266 21.912,75.214 21.701,75.214C21.49,75.187 21.305,75.24 21.12,75.293C20.935,75.372 20.882,75.478 20.909,75.61C20.962,75.768 21.067,75.926 21.199,76.032C21.331,76.164 21.463,76.322 21.595,76.481C21.727,76.613 21.754,76.824 21.674,76.982C21.542,77.22 21.305,77.405 21.041,77.484C20.592,77.669 20.117,77.774 19.642,77.774C19.114,77.801 18.612,77.722 18.11,77.563L17.345,77.88L16.474,77.458L17.213,77.141C17.081,77.062 16.975,76.956 16.87,76.824C16.79,76.745 16.738,76.639 16.685,76.534C16.658,76.454 16.632,76.375 16.632,76.296C16.632,76.243 16.632,76.19 16.632,76.138L16.658,76.085L17.978,76.085C17.952,76.138 17.952,76.164 17.952,76.217C17.952,76.322 18.005,76.428 18.058,76.507C18.163,76.666 18.322,76.798 18.506,76.877C18.744,77.009 19.008,77.062 19.272,77.088C19.51,77.114 19.747,77.062 19.985,76.982C20.17,76.903 20.249,76.798 20.196,76.666C20.143,76.507 20.038,76.375 19.906,76.27C19.747,76.111 19.615,75.953 19.51,75.794C19.404,75.662 19.378,75.451 19.457,75.293C19.615,75.055 19.853,74.87 20.117,74.791C20.539,74.606 20.988,74.527 21.463,74.527C21.938,74.501 22.44,74.58 22.889,74.738L23.628,74.422L24.446,74.87L23.681,75.187C23.813,75.266 23.918,75.425 23.971,75.583Z" fill="#FEDE17"/>
<path d="M20.434,79.702C24.399,79.702 27.614,77.81 27.614,75.478C27.614,73.145 24.399,71.254 20.434,71.254C16.468,71.254 13.253,73.145 13.253,75.478C13.253,77.81 16.468,79.702 20.434,79.702Z" fill="#FCD11A"/>
<path d="M13.253,75.478L13.253,74.237L14.045,75.214L13.253,75.478Z" fill="#FCD11A"/>
<path d="M27.641,74.237L27.641,75.478L26.717,75.478L27.403,74.501L27.641,74.237Z" fill="#FCD11A"/>
<path d="M20.434,78.54C24.399,78.54 27.614,76.649 27.614,74.316C27.614,71.983 24.399,70.092 20.434,70.092C16.468,70.092 13.253,71.983 13.253,74.316C13.253,76.649 16.468,78.54 20.434,78.54Z" fill="#FEDE17"/>
<path d="M20.46,77.854C23.799,77.854 26.506,76.27 26.506,74.316C26.506,72.362 23.799,70.778 20.46,70.778C17.121,70.778 14.414,72.362 14.414,74.316C14.414,76.27 17.121,77.854 20.46,77.854Z" fill="#FEA500"/>
<path d="M23.971,73.075C24.024,73.181 24.05,73.286 24.024,73.392L23.998,73.498L22.678,73.498C22.678,73.471 22.704,73.418 22.704,73.392C22.704,73.313 22.678,73.234 22.625,73.154C22.546,73.022 22.44,72.917 22.308,72.864C22.123,72.758 21.912,72.706 21.701,72.706C21.49,72.679 21.305,72.732 21.12,72.785C20.935,72.864 20.882,72.97 20.909,73.102C20.962,73.26 21.067,73.392 21.199,73.524C21.331,73.656 21.463,73.814 21.595,73.973C21.727,74.105 21.754,74.316 21.674,74.474C21.542,74.712 21.305,74.897 21.041,74.976C20.592,75.161 20.117,75.266 19.642,75.266C19.114,75.293 18.612,75.214 18.11,75.055L17.345,75.372L16.474,74.95L17.213,74.633C17.081,74.554 16.975,74.448 16.87,74.316C16.79,74.237 16.738,74.131 16.685,74.026C16.658,73.946 16.632,73.867 16.632,73.788C16.632,73.735 16.632,73.682 16.632,73.63L16.658,73.577L17.978,73.577C17.978,73.63 17.952,73.656 17.952,73.709C17.952,73.814 18.005,73.92 18.058,73.999C18.163,74.158 18.322,74.29 18.506,74.369C18.744,74.501 19.008,74.554 19.272,74.58C19.51,74.606 19.747,74.554 19.985,74.474C20.17,74.395 20.249,74.29 20.196,74.158C20.143,73.999 20.038,73.867 19.906,73.735C19.774,73.603 19.615,73.445 19.51,73.286C19.404,73.154 19.378,72.943 19.457,72.785C19.615,72.547 19.853,72.362 20.117,72.283C20.539,72.098 20.988,72.019 21.463,72.019C21.938,71.993 22.44,72.072 22.889,72.23L23.628,71.914L24.446,72.362L23.681,72.679C23.813,72.785 23.918,72.917 23.971,73.075Z" fill="#FEDE17"/>
<path d="M20.434,77.431C24.399,77.431 27.614,75.54 27.614,73.207C27.614,70.874 24.399,68.983 20.434,68.983C16.468,68.983 13.253,70.874 13.253,73.207C13.253,75.54 16.468,77.431 20.434,77.431Z" fill="#FCD11A"/>
<path d="M13.253,73.207L13.253,71.966L14.045,72.943L13.253,73.207Z" fill="#FCD11A"/>
<path d="M27.641,71.966L27.641,73.207L26.717,73.207L27.403,72.23L27.641,71.966Z" fill="#FCD11A"/>
<path d="M20.434,76.243C24.399,76.243 27.614,74.352 27.614,72.019C27.614,69.686 24.399,67.795 20.434,67.795C16.468,67.795 13.253,69.686 13.253,72.019C13.253,74.352 16.468,76.243 20.434,76.243Z" fill="#FEDE17"/>
<path d="M20.46,75.557C23.799,75.557 26.506,73.973 26.506,72.019C26.506,70.065 23.799,68.482 20.46,68.482C17.121,68.482 14.414,70.065 14.414,72.019C14.414,73.973 17.121,75.557 20.46,75.557Z" fill="#FEA500"/>
<path d="M23.971,70.805C24.024,70.91 24.05,71.016 24.024,71.122L23.998,71.227L22.678,71.227C22.678,71.201 22.704,71.148 22.704,71.122C22.704,71.042 22.678,70.963 22.625,70.884C22.546,70.752 22.44,70.646 22.308,70.594C22.123,70.488 21.912,70.435 21.701,70.435C21.49,70.409 21.305,70.462 21.12,70.514C20.935,70.594 20.882,70.699 20.909,70.831C20.962,70.99 21.067,71.122 21.199,71.254C21.331,71.386 21.463,71.544 21.595,71.702C21.727,71.834 21.754,72.046 21.674,72.204C21.542,72.442 21.305,72.626 21.041,72.706C20.592,72.89 20.117,72.996 19.642,72.996C19.114,73.022 18.612,72.943 18.11,72.785L17.371,73.128L16.5,72.706L17.239,72.389C17.107,72.31 17.002,72.204 16.896,72.072C16.817,71.993 16.764,71.887 16.711,71.782C16.685,71.702 16.658,71.623 16.658,71.544C16.658,71.491 16.658,71.438 16.658,71.386L16.685,71.333L18.005,71.333C17.978,71.386 17.978,71.412 17.978,71.465C17.978,71.57 18.031,71.676 18.084,71.755C18.19,71.914 18.348,72.046 18.533,72.125C18.77,72.257 19.034,72.31 19.298,72.336C19.536,72.362 19.774,72.31 20.011,72.23C20.196,72.151 20.249,72.046 20.222,71.914C20.17,71.755 20.064,71.623 19.932,71.518C19.774,71.386 19.642,71.227 19.51,71.069C19.404,70.937 19.378,70.726 19.457,70.567C19.615,70.33 19.853,70.145 20.117,70.066C20.539,69.881 20.988,69.802 21.463,69.802C21.938,69.775 22.44,69.854 22.889,70.013L23.628,69.696L24.446,70.145L23.681,70.462C23.813,70.514 23.918,70.646 23.971,70.805Z" fill="#FEDE17"/>
<path d="M16.474,73.788C20.439,73.788 23.654,71.897 23.654,69.564C23.654,67.231 20.439,65.34 16.474,65.34C12.508,65.34 9.293,67.231 9.293,69.564C9.293,71.897 12.508,73.788 16.474,73.788Z" fill="#FCD11A"/>
<path d="M9.293,69.564L9.293,68.35L10.058,69.326L9.293,69.564Z" fill="#FCD11A"/>
<path d="M23.654,68.35L23.654,69.564L22.757,69.564L23.417,68.587L23.654,68.35Z" fill="#FCD11A"/>
<path d="M16.474,72.626C20.439,72.626 23.654,70.735 23.654,68.402C23.654,66.07 20.439,64.178 16.474,64.178C12.508,64.178 9.293,66.07 9.293,68.402C9.293,70.735 12.508,72.626 16.474,72.626Z" fill="#FEDE17"/>
<path d="M16.474,71.94C19.812,71.94 22.519,70.356 22.519,68.402C22.519,66.449 19.812,64.865 16.474,64.865C13.135,64.865 10.428,66.449 10.428,68.402C10.428,70.356 13.135,71.94 16.474,71.94Z" fill="#FEA500"/>
<path d="M20.011,67.188C20.064,67.294 20.09,67.399 20.064,67.505L20.038,67.61L18.718,67.61C18.718,67.584 18.744,67.531 18.744,67.505C18.744,67.426 18.718,67.346 18.665,67.267C18.586,67.135 18.48,67.03 18.348,66.977C18.163,66.871 17.952,66.818 17.741,66.818C17.53,66.792 17.345,66.845 17.16,66.898C16.975,66.977 16.922,67.082 16.949,67.214C17.002,67.373 17.107,67.505 17.239,67.637C17.371,67.769 17.503,67.927 17.635,68.086C17.767,68.218 17.794,68.429 17.714,68.587C17.582,68.825 17.345,69.01 17.081,69.089C16.632,69.274 16.157,69.379 15.682,69.379C15.154,69.406 14.652,69.326 14.15,69.168L13.385,69.485L12.514,69.062L13.253,68.746C13.121,68.666 13.015,68.561 12.91,68.429C12.83,68.35 12.778,68.244 12.725,68.138C12.698,68.059 12.672,67.98 12.672,67.901C12.672,67.848 12.672,67.795 12.672,67.742L12.698,67.69L14.018,67.69C13.992,67.742 13.992,67.769 13.992,67.822C13.992,67.927 14.045,68.033 14.098,68.112C14.203,68.27 14.362,68.402 14.546,68.482C14.784,68.614 15.048,68.666 15.312,68.693C15.55,68.719 15.787,68.666 16.025,68.587C16.21,68.508 16.289,68.402 16.236,68.27C16.183,68.112 16.078,67.98 15.946,67.874C15.814,67.742 15.655,67.584 15.55,67.426C15.444,67.294 15.418,67.082 15.497,66.924C15.655,66.686 15.893,66.502 16.157,66.422C16.579,66.264 17.028,66.158 17.477,66.158C17.952,66.132 18.454,66.211 18.902,66.37L19.668,66.053L20.486,66.502L19.721,66.818C19.826,66.871 19.932,67.03 20.011,67.188Z" fill="#FEDE17"/>
</svg>
