<svg width="132" height="132" viewBox="0 0 132 132" fill="none" xmlns="http://www.w3.org/2000/svg" xmlns:xlink="http://www.w3.org/1999/xlink">
<path d="M67.795,120.014L124.581,86.46C126.403,85.457 127.934,83.767 126.165,82.685L69.194,49.843C68.349,49.315 67.029,48.972 66.185,49.474L6.574,84.058C4.752,85.114 4.435,88.044 6.257,89.1L60.324,119.988C62.621,121.308 65.472,121.334 67.795,120.014Z" fill="#225870"/>
<path d="M82.262,54.331C82.078,54.49 81.893,54.595 81.682,54.701C81.708,54.754 81.655,54.806 81.602,54.833C81.602,54.833 81.602,54.833 81.576,54.833C81.47,54.833 81.365,54.833 81.259,54.833C80.573,54.991 79.86,54.859 79.306,54.437C78.83,54.226 78.382,53.962 77.986,53.645C77.009,52.879 76.032,51.744 74.923,50.926C74.95,51.163 74.95,51.374 74.976,51.586C75.055,52.298 75.134,53.011 75.214,53.75C75.346,55.018 75.504,56.311 75.636,57.578C75.636,57.631 75.636,57.842 75.662,57.895C77.51,60.271 82.579,59.426 82.579,59.426C82.579,59.426 85.589,51.691 82.262,54.331Z" fill="#F47A63"/>
<path d="M86.988,78.514C86.988,78.514 86.46,81.47 87.331,81.814C88.202,82.157 91.714,84.902 91.186,86.011C89.971,88.546 82.764,83.054 82.764,83.054L83.662,76.771Z" fill="#D46A00"/>
<path d="M82.447,67.188C82.447,67.769 81.946,77.616 81.946,77.616C81.946,77.616 85.958,81.312 88.942,81.074L90.42,71.518Z" fill="#FFF7E1"/>
<path d="M75.398,75.187C75.398,75.187 80.731,75.794 83.846,72.547C85.668,70.673 89.1,67.426 89.1,67.426L76.402,66.502Z" fill="#FFF7E1"/>
<path d="M49.949,11.246C44.22,14.626 30.096,22.994 25.846,25.45C25.106,25.872 24.658,26.664 24.658,27.509L24.658,85.589C24.578,86.777 25.925,87.859 27.007,87.252L50.794,73.709C51.744,73.154 52.351,72.389 52.351,71.28L52.351,12.619C52.351,11.722 51.638,11.009 50.741,11.009C50.477,11.009 50.186,11.088 49.949,11.246Z" fill="#3CAC6E"/>
<path d="M43.164,35.851C42.979,35.851 42.821,35.825 42.636,35.798C41.448,35.587 40.498,34.716 39.917,33.317C39.362,31.865 39.23,30.281 39.521,28.75C40.128,25.238 42.504,22.81 44.88,23.232C46.068,23.443 47.018,24.314 47.599,25.714C48.154,27.166 48.286,28.75 47.995,30.281C47.758,31.812 47.071,33.264 46.042,34.426C45.17,35.35 44.167,35.851 43.164,35.851ZM44.352,24.262C42.742,24.262 41.052,26.294 40.577,28.934C40.313,30.254 40.418,31.627 40.894,32.894C41.316,33.924 42.002,34.584 42.821,34.716C43.639,34.848 44.484,34.478 45.25,33.66C46.121,32.657 46.702,31.416 46.913,30.07C47.177,28.75 47.071,27.377 46.596,26.11C46.174,25.08 45.487,24.42 44.669,24.288C44.563,24.288 44.458,24.262 44.352,24.262Z" fill="#F2F2F2"/>
<g opacity="0.6">
<path d="M29.383,31.68L29.383,80.441L34.637,77.088L34.637,28.67L29.383,31.68Z" fill="#FFFFFF"/>
</g>
<path d="M52.219,11.933L44.642,16.315L44.642,17.926C44.642,18.19 44.484,18.454 44.246,18.586L38.465,21.938C38.227,22.07 37.91,21.991 37.752,21.754C37.699,21.674 37.673,21.595 37.673,21.49L37.673,20.302L26.796,26.664C26.585,26.796 26.453,27.007 26.453,27.245L26.453,85.298C26.453,85.562 26.664,85.774 26.928,85.774C27.007,85.774 27.086,85.747 27.166,85.721L52.351,71.122C52.43,72.046 52.008,72.917 51.242,73.445C49.949,74.29 27.007,87.252 27.007,87.252C27.007,87.252 25.186,88.07 24.658,85.906L24.658,27.509C24.658,26.743 25.027,26.03 25.634,25.582C26.69,24.816 49.922,11.246 49.922,11.246C49.922,11.246 51.401,10.454 52.219,11.933Z" fill="#124577"/>
<path d="M84.586,11.669C90.024,15.074 103.752,23.021 108.425,25.898C109.481,26.558 109.639,27.509 109.666,28.75L109.666,86.803C109.058,87.49 108.055,87.648 107.29,87.173L84.269,74.158C83.134,73.498 82.21,72.785 82.21,71.465L82.421,12.725C82.394,11.458 83.503,11.009 84.586,11.669Z" fill="#3CAC6E"/>
<path d="M82.447,12.329L89.945,16.632L89.945,18.242C89.945,18.506 90.103,18.77 90.341,18.902L96.122,22.255C96.36,22.414 96.677,22.334 96.835,22.07C96.888,21.991 96.914,21.912 96.914,21.806L96.914,20.618L107.791,26.981C108.002,27.113 108.134,27.324 108.134,27.588L108.134,85.615C108.134,85.879 107.923,86.09 107.659,86.09C107.58,86.09 107.501,86.064 107.422,86.038L82.236,71.438C82.157,72.362 82.579,73.26 83.345,73.762C84.638,74.58 107.58,87.569 107.58,87.569C107.58,87.569 109.402,88.387 109.93,86.222L109.93,27.852C109.93,27.086 109.56,26.374 108.953,25.925C107.897,25.159 84.506,11.563 84.506,11.563C84.506,11.563 82.817,10.798 82.447,12.329Z" fill="#124577"/>
<path d="M94.506,44.987C97.553,44.987 100.023,41.417 100.023,37.014C100.023,32.611 97.553,29.041 94.506,29.041C91.458,29.041 88.988,32.611 88.988,37.014C88.988,41.417 91.458,44.987 94.506,44.987Z" transform="rotate(-16.097 94.506 37.014)" fill="#124577"/>
<path d="M90.684,37.514L91.582,36.089L93.192,38.544L96.73,33.053L98.155,34.188L93.324,41.527L90.684,37.514Z" fill="#FFFFFF"/>
<path d="M40.709,54.806C40.55,54.806 40.445,54.701 40.445,54.542C40.471,54.358 40.498,54.146 40.55,53.962C40.577,53.83 40.709,53.724 40.867,53.75C40.999,53.777 41.105,53.909 41.078,54.067C41.052,54.226 41.026,54.384 40.999,54.542C40.946,54.701 40.841,54.806 40.709,54.806Z" fill="#124577"/>
<path d="M41.395,51.982C41.369,51.982 41.342,51.982 41.316,51.982C41.184,51.929 41.105,51.797 41.131,51.665C41.237,51.348 41.342,51.005 41.448,50.635C41.474,50.503 41.633,50.398 41.765,50.45C41.897,50.503 42.002,50.635 41.95,50.767L41.95,50.794C41.844,51.137 41.712,51.48 41.633,51.797C41.606,51.902 41.501,51.982 41.395,51.982ZM86.645,49.394C86.513,49.394 86.407,49.315 86.381,49.183C86.301,48.84 86.222,48.497 86.117,48.154C86.064,48.022 86.169,47.863 86.301,47.837C86.433,47.81 86.592,47.89 86.618,48.022C86.724,48.365 86.803,48.708 86.882,49.078C86.909,49.21 86.829,49.368 86.697,49.394C86.671,49.394 86.645,49.394 86.645,49.394ZM42.557,48.708C42.398,48.708 42.293,48.602 42.293,48.444C42.293,48.418 42.293,48.365 42.319,48.338C42.451,48.022 42.583,47.678 42.742,47.335C42.794,47.203 42.953,47.15 43.085,47.203C43.217,47.256 43.27,47.414 43.217,47.546C43.058,47.89 42.926,48.206 42.794,48.523C42.768,48.629 42.662,48.708 42.557,48.708ZM85.615,46.068C85.509,46.068 85.404,45.989 85.377,45.91C85.245,45.593 85.113,45.25 84.981,44.933C84.929,44.801 84.981,44.642 85.113,44.59C85.245,44.537 85.404,44.59 85.457,44.722C85.457,44.722 85.457,44.722 85.457,44.748C85.589,45.065 85.721,45.408 85.853,45.751C85.905,45.883 85.826,46.042 85.694,46.094C85.668,46.068 85.641,46.068 85.615,46.068ZM44.035,45.566C43.877,45.566 43.771,45.434 43.771,45.302C43.771,45.25 43.771,45.223 43.798,45.17C43.956,44.854 44.141,44.537 44.326,44.22C44.405,44.088 44.563,44.062 44.695,44.114C44.827,44.194 44.854,44.352 44.801,44.484C44.616,44.801 44.458,45.118 44.299,45.408C44.22,45.514 44.141,45.566 44.035,45.566ZM84.189,42.926C84.084,42.926 84.005,42.874 83.952,42.768C83.793,42.451 83.609,42.134 83.424,41.844C83.345,41.712 83.397,41.554 83.503,41.474C83.635,41.395 83.793,41.448 83.873,41.554C84.057,41.87 84.242,42.187 84.401,42.504C84.48,42.636 84.427,42.794 84.295,42.874C84.269,42.9 84.216,42.9 84.189,42.926ZM45.83,42.61C45.778,42.61 45.725,42.583 45.672,42.557C45.54,42.478 45.514,42.319 45.593,42.187C45.804,41.897 46.015,41.606 46.226,41.316C46.332,41.21 46.49,41.184 46.596,41.29C46.702,41.369 46.728,41.527 46.649,41.633C46.438,41.923 46.226,42.214 46.042,42.504C45.989,42.557 45.91,42.583 45.83,42.61ZM82.341,39.996C82.262,39.996 82.183,39.97 82.13,39.89C81.919,39.6 81.708,39.336 81.47,39.072C81.365,38.966 81.391,38.782 81.497,38.702C81.602,38.623 81.787,38.623 81.866,38.729C82.104,38.993 82.315,39.283 82.526,39.574C82.605,39.679 82.579,39.864 82.473,39.943C82.447,39.97 82.394,39.996 82.341,39.996ZM47.942,39.864C47.784,39.864 47.678,39.758 47.678,39.6C47.678,39.547 47.705,39.468 47.731,39.415C47.969,39.151 48.206,38.887 48.47,38.623C48.576,38.518 48.734,38.518 48.84,38.623C48.946,38.729 48.946,38.887 48.84,38.993C48.602,39.257 48.365,39.494 48.127,39.785C48.074,39.838 48.022,39.838 47.942,39.864ZM80.018,37.409C79.939,37.409 79.886,37.382 79.833,37.33C79.569,37.092 79.305,36.854 79.041,36.643C78.936,36.538 78.936,36.379 79.041,36.274C79.121,36.168 79.279,36.168 79.385,36.247C79.649,36.485 79.939,36.722 80.203,36.96C80.309,37.066 80.309,37.224 80.203,37.33C80.15,37.382 80.097,37.409 80.018,37.409ZM50.398,37.409C50.239,37.409 50.134,37.303 50.134,37.145C50.134,37.066 50.16,36.986 50.239,36.934C50.503,36.696 50.794,36.458 51.084,36.247C51.19,36.168 51.374,36.168 51.454,36.3C51.533,36.432 51.533,36.59 51.401,36.67C51.137,36.881 50.846,37.118 50.582,37.33C50.53,37.382 50.45,37.409 50.398,37.409ZM53.196,35.35C53.038,35.35 52.932,35.244 52.932,35.086C52.932,35.006 52.985,34.901 53.064,34.848C53.354,34.663 53.671,34.478 53.988,34.294C54.12,34.214 54.278,34.267 54.358,34.399C54.437,34.531 54.384,34.69 54.252,34.769C53.935,34.927 53.645,35.112 53.354,35.297C53.302,35.35 53.249,35.35 53.196,35.35ZM77.299,35.297C77.246,35.297 77.193,35.27 77.167,35.244C76.877,35.059 76.56,34.874 76.269,34.716C76.137,34.637 76.111,34.478 76.164,34.346C76.243,34.214 76.401,34.188 76.533,34.241C76.85,34.426 77.167,34.61 77.457,34.795C77.589,34.874 77.616,35.033 77.537,35.165C77.457,35.244 77.378,35.27 77.299,35.297ZM56.258,33.766C56.1,33.766 55.994,33.66 55.994,33.502C55.994,33.396 56.047,33.29 56.153,33.264C56.496,33.132 56.813,33 57.156,32.868C57.288,32.815 57.446,32.894 57.499,33.026C57.552,33.158 57.473,33.317 57.341,33.37C57.024,33.475 56.681,33.607 56.364,33.739C56.338,33.766 56.285,33.766 56.258,33.766ZM74.21,33.686C74.184,33.686 74.131,33.686 74.105,33.66C73.788,33.528 73.445,33.396 73.128,33.29C72.996,33.238 72.917,33.079 72.969,32.947C73.022,32.815 73.181,32.736 73.313,32.789C73.656,32.894 73.999,33.026 74.316,33.158C74.448,33.211 74.501,33.37 74.448,33.502C74.421,33.634 74.316,33.686 74.21,33.686ZM59.558,32.71C59.426,32.71 59.321,32.63 59.294,32.498C59.268,32.366 59.347,32.208 59.479,32.182C59.822,32.102 60.192,32.023 60.535,31.97C60.694,31.944 60.826,32.05 60.852,32.182C60.878,32.314 60.773,32.472 60.641,32.498C60.298,32.551 59.954,32.63 59.611,32.71L59.558,32.71ZM70.91,32.657C70.884,32.657 70.884,32.657 70.857,32.657C70.514,32.578 70.171,32.498 69.828,32.446C69.669,32.419 69.59,32.287 69.617,32.129C69.643,31.97 69.775,31.891 69.933,31.918C70.277,31.97 70.646,32.05 70.989,32.129C71.148,32.155 71.253,32.287 71.227,32.419C71.174,32.578 71.042,32.683 70.91,32.657ZM62.964,32.155C62.805,32.155 62.7,32.05 62.7,31.891C62.7,31.733 62.805,31.627 62.964,31.627C63.333,31.601 63.677,31.574 64.046,31.548C64.205,31.548 64.31,31.654 64.31,31.786C64.31,31.786 64.31,31.786 64.31,31.812C64.31,31.944 64.205,32.076 64.073,32.076C63.677,32.102 63.333,32.129 62.964,32.155ZM67.478,32.155C67.109,32.129 66.765,32.102 66.396,32.102C66.237,32.102 66.132,31.97 66.132,31.838C66.132,31.68 66.264,31.574 66.396,31.574C66.765,31.601 67.109,31.601 67.478,31.627C67.637,31.627 67.742,31.759 67.742,31.891C67.742,32.023 67.61,32.155 67.478,32.155Z" fill="#124577"/>
<path d="M87.146,52.298C87.014,52.298 86.882,52.193 86.882,52.061C86.882,52.061 86.856,51.876 86.83,51.559C86.803,51.401 86.909,51.269 87.067,51.269C87.226,51.242 87.358,51.348 87.358,51.506C87.41,51.85 87.41,52.034 87.41,52.034C87.437,52.14 87.331,52.272 87.146,52.298Z" fill="#124577"/>
<path d="M86.486,52.246L86.486,52.14C86.486,51.427 87.067,50.846 87.78,50.846C88.018,50.846 88.229,50.899 88.44,51.031L100.637,58.159C101.033,58.397 101.297,58.819 101.297,59.294C101.297,60.007 100.716,60.588 99.977,60.588C99.739,60.588 99.528,60.535 99.343,60.403L87.146,53.381C86.724,53.143 86.486,52.721 86.486,52.246Z" fill="#124577"/>
<path d="M93.482,51.823C92.532,51.85 91.608,52.061 90.737,52.404C89.364,52.985 93.43,54.199 93.43,54.199Z" fill="#FFD008"/>
<path d="M93.852,57.209C95.04,57.869 96.149,58.634 97.337,59.347C98.182,58.106 98.393,56.549 97.918,55.15C97.126,52.694 94.67,51.295 92.426,52.034C91.106,52.483 90.103,53.566 89.76,54.938C91.106,55.651 92.479,56.443 93.852,57.209Z" fill="#D46A00"/>
<path d="M93.852,57.209C94.75,57.71 95.594,58.265 96.492,58.819C96.967,57.737 96.994,56.522 96.624,55.387C95.832,52.932 93.377,51.533 91.133,52.272C90.077,52.615 89.232,53.381 88.757,54.384C90.473,55.282 92.162,56.258 93.852,57.209Z" fill="#FFD008"/>
<path d="M96.202,58.582L95.885,58.397C95.251,58.001 94.565,57.578 93.905,57.182L92.453,56.364C91.423,55.783 90.367,55.176 89.311,54.595L89.206,54.542L89.258,54.437C90.13,52.642 92.294,51.876 94.09,52.721C94.195,52.774 94.301,52.826 94.38,52.879C96.307,54.014 97.099,56.364 96.254,58.45L96.202,58.582ZM94.063,56.971C94.723,57.341 95.41,57.763 96.043,58.186L96.096,58.212C96.413,57.341 96.439,56.364 96.149,55.466C95.832,54.49 95.172,53.645 94.274,53.143C92.69,52.193 90.631,52.694 89.681,54.278C89.654,54.331 89.602,54.384 89.575,54.463C90.605,55.018 91.634,55.598 92.611,56.153L94.063,56.971Z" fill="#D46A00"/>
<path d="M93.852,57.209L94.09,57.341C94.09,57.103 94.037,56.892 93.878,56.707C93.746,56.522 93.562,56.39 93.35,56.311C93.139,56.232 92.954,56.153 92.743,56.1C92.558,56.047 92.374,55.968 92.215,55.862C92.083,55.783 92.004,55.651 92.004,55.519C92.004,55.387 92.057,55.282 92.162,55.202C92.294,55.123 92.426,55.07 92.585,55.07C92.743,55.07 92.875,55.123 93.007,55.176C93.113,55.229 93.192,55.282 93.271,55.334C93.298,55.387 93.35,55.414 93.377,55.44L93.931,54.859L93.826,54.754C93.72,54.648 93.614,54.569 93.482,54.516C93.324,54.41 93.139,54.358 92.954,54.305L92.954,53.724L92.162,53.698L92.162,54.278C91.846,54.331 91.555,54.463 91.344,54.701C91.133,54.912 91.027,55.176 91.027,55.466C91.027,55.519 91.027,55.572 91.027,55.625L93.852,57.209Z" fill="#D46A00"/>
<path d="M66.132,24.13C64.522,24.209 62.911,24.605 61.433,25.265C59.083,26.347 66.158,28.248 66.158,28.248Z" fill="#FFD008"/>
<path d="M66.955,40.147C71.008,40.147 74.294,36.542 74.294,32.095C74.294,27.648 71.008,24.043 66.955,24.043C62.901,24.043 59.615,27.648 59.615,32.095C59.615,36.542 62.901,40.147 66.955,40.147Z" transform="rotate(-38.464 66.955 32.095)" fill="#D46A00"/>
<path d="M64.735,40.63C68.788,40.63 72.074,37.025 72.074,32.578C72.074,28.131 68.788,24.526 64.735,24.526C60.682,24.526 57.396,28.131 57.396,32.578C57.396,37.025 60.682,40.63 64.735,40.63Z" transform="rotate(-38.464 64.735 32.578)" fill="#FFD008"/>
<path d="M65.102,39.706C62.304,39.706 59.585,37.778 58.529,34.742C57.235,30.994 58.951,26.981 62.357,25.793C64.046,25.212 65.894,25.397 67.452,26.242C70.831,28.142 72.257,32.234 70.805,35.825C70.118,37.462 68.798,38.755 67.109,39.336C66.475,39.574 65.789,39.706 65.102,39.706ZM58.766,34.663C60.034,38.254 63.73,40.26 67.003,39.125C68.614,38.544 69.907,37.33 70.541,35.746C71.94,32.287 70.567,28.327 67.32,26.506C65.842,25.661 64.073,25.502 62.462,26.057C59.162,27.192 57.526,31.073 58.766,34.663Z" fill="#D46A00"/>
<path d="M66.29,28.776C66.502,28.882 66.713,29.014 66.871,29.172L67.03,29.357L66.079,30.36C65.921,30.149 65.683,29.99 65.446,29.911C65.208,29.806 64.97,29.726 64.706,29.726C64.442,29.7 64.178,29.806 63.967,29.964C63.809,30.096 63.703,30.307 63.703,30.518C63.703,30.782 63.862,30.994 64.073,31.099C64.363,31.258 64.654,31.39 64.97,31.469C65.34,31.574 65.683,31.68 66.053,31.812C66.422,31.944 66.739,32.182 66.977,32.498C67.241,32.842 67.373,33.264 67.346,33.686C67.346,34.214 67.162,34.742 66.818,35.138C66.422,35.561 65.921,35.851 65.34,35.93L65.34,36.96L63.967,36.96L63.967,35.983C63.703,35.957 63.439,35.878 63.175,35.772C62.964,35.693 62.753,35.587 62.542,35.482C62.383,35.376 62.251,35.297 62.119,35.165C62.014,35.086 61.934,35.006 61.855,34.927L61.776,34.822L62.726,33.871C62.779,33.924 62.832,34.003 62.938,34.082C63.122,34.214 63.307,34.346 63.518,34.426C63.809,34.558 64.126,34.637 64.469,34.637C64.786,34.663 65.102,34.558 65.366,34.373C65.578,34.214 65.683,33.95 65.683,33.686C65.683,33.422 65.525,33.211 65.314,33.079C65.023,32.921 64.733,32.789 64.416,32.71C64.046,32.604 63.703,32.498 63.334,32.366C62.964,32.234 62.674,31.997 62.436,31.68C62.172,31.337 62.04,30.914 62.066,30.492C62.066,29.99 62.251,29.515 62.594,29.146C62.964,28.75 63.466,28.459 64.02,28.38L64.02,27.377L65.393,27.377L65.393,28.406C65.71,28.512 66,28.618 66.29,28.776Z" fill="#D46A00"/>
<path d="M49.051,49.843L49.051,49.738C49.051,49.025 48.47,48.444 47.758,48.444C47.52,48.444 47.309,48.497 47.098,48.629L34.901,55.757C34.505,55.994 34.241,56.417 34.267,56.892C34.267,57.605 34.848,58.186 35.587,58.186C35.825,58.186 36.036,58.133 36.221,58.001L48.418,50.978C48.814,50.741 49.051,50.318 49.051,49.843Z" fill="#124577"/>
<path d="M42.055,49.447C43.006,49.474 43.93,49.685 44.801,50.028C46.174,50.609 42.108,51.823 42.108,51.823Z" fill="#FFD008"/>
<path d="M41.686,54.833C40.498,55.493 39.389,56.258 38.201,56.971C37.356,55.73 37.145,54.173 37.62,52.774C38.412,50.318 40.867,48.919 43.111,49.658C44.431,50.107 45.434,51.19 45.778,52.536C44.431,53.275 43.058,54.067 41.686,54.833Z" fill="#D46A00"/>
<path d="M41.686,54.833C40.788,55.334 39.943,55.889 39.046,56.443C38.597,55.361 38.544,54.146 38.914,53.011C39.706,50.556 42.161,49.157 44.405,49.896C45.461,50.239 46.306,51.005 46.781,52.008C45.065,52.906 43.375,53.882 41.686,54.833Z" fill="#FFD008"/>
<path d="M39.336,56.206L39.283,56.074C38.438,54.014 39.257,51.665 41.158,50.53C42.874,49.5 45.091,50.054 46.121,51.77C46.174,51.876 46.226,51.955 46.279,52.061L46.332,52.166L46.226,52.219C45.17,52.8 44.114,53.407 43.085,53.988L41.633,54.806C40.973,55.176 40.313,55.598 39.653,55.994L39.336,56.206ZM43.032,50.239C42.425,50.239 41.818,50.398 41.29,50.714C39.547,51.744 38.782,53.882 39.468,55.783L39.521,55.757C40.154,55.361 40.841,54.938 41.501,54.542C41.976,54.278 42.478,53.988 42.953,53.724C43.956,53.17 44.959,52.589 45.989,52.034C45.593,51.269 44.88,50.662 44.062,50.398C43.718,50.292 43.375,50.239 43.032,50.239Z" fill="#D46A00"/>
<path d="M41.686,54.833L41.448,54.965C41.448,54.727 41.501,54.516 41.659,54.331C41.791,54.146 41.976,54.014 42.187,53.935C42.398,53.856 42.61,53.777 42.794,53.724C42.979,53.671 43.164,53.592 43.322,53.486C43.454,53.407 43.534,53.275 43.534,53.143C43.534,53.011 43.481,52.906 43.375,52.826C43.243,52.747 43.111,52.694 42.953,52.694C42.794,52.694 42.662,52.747 42.53,52.8C42.425,52.853 42.346,52.906 42.266,52.958C42.214,53.011 42.187,53.038 42.161,53.064L41.606,52.51L41.712,52.404C41.818,52.298 41.923,52.219 42.055,52.166C42.214,52.061 42.398,52.008 42.583,51.955L42.583,51.374L43.375,51.348L43.375,51.929C43.692,51.982 43.982,52.114 44.194,52.351C44.405,52.562 44.51,52.826 44.51,53.117C44.51,53.17 44.51,53.222 44.51,53.275L41.686,54.833Z" fill="#D46A00"/>
<path d="M62.911,70.039C62.911,70.039 61.301,68.851 60.694,69.036C60.086,69.221 59.849,75.979 60.271,76.402C60.694,76.824 62.119,78.355 62.938,78.038C63.756,77.722 64.231,76.402 64.231,76.402Z" fill="#D46A00"/>
<path d="M77.827,65.894L68.165,66.475L69.986,73.26L63.756,68.561C62.542,69.854 62.753,71.227 62.674,72.943C62.594,74.052 62.7,75.161 62.99,76.243C63.017,76.349 63.07,76.481 63.096,76.586C63.677,77.114 64.363,77.59 64.812,77.959C65.921,78.83 67.003,79.781 68.112,80.678C69.67,81.972 71.148,83.186 73.102,83.767C75.055,84.348 78.514,82.896 78.91,80.599C79.675,76.481 78.382,69.986 77.827,65.894Z" fill="#FFF7E1"/>
<path d="M69.115,49.474C68.746,48.84 67.584,47.969 66.924,48.734C66.66,49.078 66.713,49.553 67.03,49.843C67.373,50.16 67.954,50.266 68.376,50.398C68.561,50.45 68.772,50.345 68.825,50.16C68.825,50.134 68.851,50.081 68.851,50.054C69.062,50.028 69.194,49.843 69.168,49.632C69.142,49.553 69.142,49.526 69.115,49.474Z" fill="#FBB5AD"/>
<path d="M77.352,61.75L67.452,59.321C67.452,59.321 67.769,63.624 68.138,66.475C69.907,67.267 72.072,67.267 73.946,66.977C75.293,66.818 76.586,66.449 77.801,65.894C78.197,65.683 78.566,65.446 78.936,65.182C78.804,64.152 77.484,62.806 77.352,61.75Z" fill="#F47A63"/>
<path d="M79.622,63.835C79.622,64.601 79.411,66.528 79.358,67.294C75.187,66.185 66.158,63.149 65.551,56.945C65.472,56.1 65.551,55.255 65.842,54.437C66.37,53.592 67.214,52.906 67.927,52.246C68.983,51.242 70.303,50.266 71.782,50.002C73.577,49.685 75.002,50.846 76.296,52.061C76.798,53.196 75.372,54.305 75.557,55.44L78.065,63.017L79.622,63.835Z" fill="#F47A63"/>
<path d="M71.834,47.362C71.834,47.362 72.917,52.43 71.254,53.09C69.59,53.75 67.874,52.562 67.584,51.612C67.294,50.662 67.478,49.183 67.478,49.183C67.478,49.183 68.693,47.388 71.834,47.362Z" fill="#FBB5AD"/>
<path d="M72.019,46.464C72.072,45.223 70.356,44.458 69.538,45.487C69.142,45.144 68.614,44.986 68.086,45.065C67.346,45.197 67.109,45.698 67.162,46.411C66.739,46.411 66.317,46.596 66.079,46.939C65.789,47.362 65.789,47.916 66.079,48.312C65.525,48.47 65.261,49.078 65.314,49.658C65.34,49.922 65.419,50.16 65.578,50.371C65.551,50.45 65.525,50.53 65.498,50.609C65.419,51.084 65.657,51.533 66.053,51.797C66.29,51.955 66.554,52.034 66.818,52.034C67.003,52.404 67.373,52.615 67.769,52.589C68.27,52.562 68.693,52.166 68.746,51.665C68.746,51.533 68.746,51.374 68.693,51.242C68.93,50.741 68.957,50.16 68.825,49.606C68.904,49.579 68.957,49.553 69.036,49.5C69.247,49.368 69.379,49.157 69.432,48.919C69.67,48.998 69.907,49.025 70.171,48.972C70.409,48.919 70.594,48.761 70.673,48.523C71.28,48.682 72.098,48.444 72.415,47.916C72.653,47.414 72.494,46.781 72.019,46.464Z" fill="#D46A00"/>
<path d="M69.142,50.873C69.089,50.556 68.878,50.266 68.614,50.081C68.323,49.896 67.927,49.843 67.69,50.16C67.531,50.424 67.531,50.767 67.716,51.005C67.954,51.295 68.297,51.295 68.64,51.427C68.825,51.506 68.93,51.322 68.904,51.163C69.036,51.163 69.142,51.031 69.142,50.899L69.142,50.873Z" fill="#FBB5AD"/>
<path d="M71.491,49.579C71.465,49.474 71.28,49.526 71.306,49.632C71.359,49.896 71.412,50.16 71.465,50.424C71.491,50.556 71.518,50.662 71.544,50.794C71.544,51.005 71.438,51.058 71.28,51.163C71.174,51.216 71.28,51.401 71.386,51.322C71.597,51.19 71.782,51.137 71.755,50.846C71.676,50.424 71.597,50.002 71.491,49.579Z" fill="#124577"/>
<path d="M71.914,49.368C71.861,49.368 71.834,49.421 71.834,49.474C71.834,49.526 71.861,49.553 71.914,49.553C71.966,49.553 71.993,49.5 71.993,49.447C71.993,49.394 71.966,49.368 71.914,49.368Z" fill="#124577"/>
<path d="M70.118,49.975C70.066,49.975 70.039,50.028 70.039,50.081C70.039,50.134 70.066,50.16 70.118,50.16C70.171,50.16 70.198,50.107 70.198,50.054C70.171,50.028 70.145,49.975 70.118,49.975Z" fill="#124577"/>
<path d="M71.069,51.691C70.778,51.823 70.435,51.718 70.25,51.427C70.224,51.374 70.171,51.374 70.118,51.401C70.066,51.427 70.066,51.48 70.092,51.533C70.303,51.902 70.752,52.034 71.148,51.876C71.28,51.797 71.174,51.638 71.069,51.691Z" fill="#124577"/>
<path d="M82.579,62.726C82.13,62.674 81.734,63.043 81.523,63.413C81.365,63.677 81.259,63.941 81.101,64.205C80.837,64.601 80.599,64.442 80.203,64.258C79.807,64.073 79.385,64.706 79.834,64.891C80.15,65.05 80.599,65.314 80.942,65.287C81.18,65.234 81.418,65.076 81.523,64.865C81.576,65.05 81.761,65.155 81.946,65.102C81.998,65.076 82.078,65.05 82.104,64.997C82.421,64.601 82.896,64.152 83.028,63.624C83.186,63.228 83.028,62.779 82.579,62.726Z" fill="#FBB5AD"/>
<path d="M84.823,65.736C83.107,65.155 81.365,64.574 79.622,63.994C79.517,64.865 79.464,65.762 79.385,66.634C80.15,67.505 80.942,68.35 81.946,68.983C82.157,69.089 82.394,69.036 82.526,68.825C82.553,68.772 82.579,68.693 82.579,68.614C82.553,68.455 82.526,68.297 82.447,68.138C82.79,68.376 83.186,68.561 83.582,68.719C83.82,68.772 84.031,68.64 84.084,68.402C84.11,68.27 84.084,68.112 83.978,68.033C83.873,67.927 83.741,67.848 83.635,67.742C83.926,67.795 84.216,67.795 84.506,67.769C84.955,67.742 85.114,67.056 84.612,66.95C84.427,66.898 84.216,66.845 84.031,66.792C84.374,66.739 84.718,66.607 84.982,66.396C85.272,66.211 85.087,65.815 84.823,65.736Z" fill="#FBB5AD"/>
<path d="M82.975,51.823C81.761,52.246 81.101,53.592 81.55,54.806C81.576,54.859 81.602,54.938 81.629,54.991C81.682,55.123 81.814,55.202 81.946,55.176C81.972,54.542 82.289,53.935 82.764,53.513L82.79,53.513C83.16,53.196 83.635,52.932 83.767,52.536C83.952,52.008 83.503,51.638 82.975,51.823Z" fill="#FBB5AD"/>
<path d="M78.593,68.534C78.54,68.244 78.091,68.376 78.144,68.666C78.566,70.858 78.857,73.075 79.042,75.293C79.068,75.583 79.543,75.583 79.517,75.293C79.306,73.022 79.015,70.778 78.593,68.534Z" fill="#124577"/>
<path d="M71.887,79.781C71.201,77.748 70.673,75.689 70.25,73.603C70.198,73.313 69.749,73.445 69.802,73.735C70.224,75.821 70.752,77.906 71.438,79.913C71.518,80.177 71.966,80.071 71.887,79.781Z" fill="#124577"/>
<path d="M76.164,66.422C72.838,65.419 69.828,63.571 67.452,61.01C67.294,60.852 67.056,61.09 67.214,61.248C69.617,63.835 72.679,65.736 76.058,66.739C76.164,66.766 76.243,66.713 76.27,66.634C76.296,66.554 76.27,66.449 76.164,66.422Z" fill="#124577"/>
<path d="M79.834,63.624C77.51,62.7 75.346,61.459 73.339,59.981C73.154,59.849 72.996,60.139 73.154,60.271C75.187,61.776 77.405,63.017 79.728,63.941C79.939,64.046 80.018,63.73 79.834,63.624Z" fill="#124577"/>
<path d="M77.642,60.535C77.114,58.898 76.586,57.262 76.032,55.651C75.953,55.44 75.636,55.519 75.689,55.757L77.299,60.641C77.378,60.852 77.722,60.746 77.642,60.535Z" fill="#124577"/>
<path d="M54.067,104.914C58.806,104.914 62.647,102.668 62.647,99.898C62.647,97.127 58.806,94.882 54.067,94.882C49.329,94.882 45.487,97.127 45.487,99.898C45.487,102.668 49.329,104.914 54.067,104.914Z" fill="#D46A00"/>
<path d="M45.461,99.898L45.461,98.446L46.411,99.581L45.461,99.898Z" fill="#D46A00"/>
<path d="M62.647,98.446L62.647,99.898L61.538,99.898L62.33,98.71L62.647,98.446Z" fill="#D46A00"/>
<path d="M54.067,103.462C58.806,103.462 62.647,101.216 62.647,98.446C62.647,95.675 58.806,93.43 54.067,93.43C49.329,93.43 45.487,95.675 45.487,98.446C45.487,101.216 49.329,103.462 54.067,103.462Z" fill="#FFD008"/>
<path d="M58.397,97.759C58.45,97.865 58.476,97.997 58.476,98.129L58.45,98.261L56.892,98.261C56.918,98.208 56.918,98.182 56.918,98.129C56.918,98.023 56.892,97.918 56.813,97.838C56.734,97.68 56.602,97.574 56.443,97.495C56.206,97.39 55.968,97.31 55.704,97.31C55.466,97.284 55.229,97.337 55.018,97.416C54.806,97.522 54.701,97.627 54.754,97.786C54.833,97.97 54.938,98.129 55.097,98.287C55.255,98.472 55.414,98.63 55.572,98.842C55.704,99 55.757,99.238 55.651,99.449C55.572,99.66 55.308,99.871 54.886,100.03C54.358,100.241 53.803,100.373 53.222,100.373C52.615,100.399 51.982,100.294 51.401,100.109L50.503,100.505L49.447,100.003L50.318,99.634C50.16,99.528 50.028,99.422 49.896,99.29C49.817,99.185 49.738,99.079 49.685,98.947C49.658,98.868 49.632,98.762 49.632,98.657C49.632,98.578 49.632,98.525 49.658,98.446L49.685,98.366L51.242,98.366C51.242,98.393 51.216,98.472 51.216,98.525C51.216,98.657 51.269,98.789 51.348,98.868C51.48,99.053 51.665,99.211 51.876,99.317C52.166,99.449 52.483,99.528 52.774,99.554C53.064,99.581 53.354,99.528 53.618,99.422C53.83,99.317 53.909,99.211 53.856,99.053C53.777,98.868 53.671,98.71 53.513,98.551C53.328,98.393 53.17,98.208 53.038,97.997C52.906,97.838 52.879,97.601 52.985,97.39C53.09,97.178 53.354,96.967 53.777,96.782C54.278,96.571 54.806,96.466 55.361,96.466C55.942,96.439 56.522,96.545 57.05,96.73L57.948,96.334L58.925,96.862L58.027,97.258C58.186,97.416 58.318,97.574 58.397,97.759Z" fill="#D46A00"/>
<path d="M54.067,103.514C49.579,103.514 46.068,101.323 46.068,98.498C46.068,95.674 49.579,93.482 54.067,93.482C58.555,93.482 62.066,95.674 62.066,98.498C62.066,101.323 58.555,103.514 54.067,103.514ZM54.067,95.066C50.582,95.066 47.652,96.65 47.652,98.498C47.652,100.346 50.582,101.93 54.067,101.93C57.552,101.93 60.482,100.346 60.482,98.498C60.482,96.65 57.552,95.066 54.067,95.066Z" fill="#D46A00"/>
<path d="M54.067,101.27C58.806,101.27 62.647,99.025 62.647,96.254C62.647,93.484 58.806,91.238 54.067,91.238C49.329,91.238 45.487,93.484 45.487,96.254C45.487,99.025 49.329,101.27 54.067,101.27Z" fill="#D46A00"/>
<path d="M45.461,96.254L45.461,94.802L46.411,95.964L45.461,96.254Z" fill="#D46A00"/>
<path d="M62.647,94.802L62.647,96.254L61.538,96.254L62.33,95.093L62.647,94.802Z" fill="#D46A00"/>
<path d="M54.067,99.818C58.806,99.818 62.647,97.573 62.647,94.802C62.647,92.032 58.806,89.786 54.067,89.786C49.329,89.786 45.487,92.032 45.487,94.802C45.487,97.573 49.329,99.818 54.067,99.818Z" fill="#FFD008"/>
<path d="M58.397,94.142C58.45,94.248 58.476,94.38 58.476,94.512L58.45,94.644L56.892,94.644C56.918,94.591 56.918,94.565 56.918,94.512C56.918,94.406 56.892,94.301 56.813,94.222C56.734,94.063 56.602,93.958 56.443,93.878C56.206,93.746 55.968,93.694 55.704,93.694C55.466,93.667 55.229,93.72 55.018,93.799C54.806,93.905 54.701,94.01 54.754,94.169C54.833,94.354 54.938,94.512 55.097,94.67C55.255,94.855 55.414,95.014 55.572,95.225C55.704,95.383 55.757,95.621 55.651,95.832C55.572,96.043 55.308,96.254 54.886,96.413C54.358,96.624 53.803,96.756 53.222,96.756C52.615,96.782 51.982,96.677 51.401,96.492L50.503,96.888L49.447,96.36L50.318,95.99C50.16,95.885 50.028,95.753 49.896,95.621C49.817,95.515 49.738,95.41 49.685,95.278C49.658,95.198 49.632,95.093 49.632,94.987C49.632,94.908 49.632,94.855 49.658,94.776L49.685,94.697L51.242,94.697C51.242,94.723 51.216,94.802 51.216,94.855C51.216,94.987 51.269,95.119 51.348,95.225C51.48,95.41 51.665,95.568 51.876,95.674C52.166,95.806 52.457,95.885 52.774,95.911C53.064,95.938 53.354,95.885 53.618,95.779C53.83,95.674 53.909,95.568 53.856,95.41C53.777,95.225 53.671,95.066 53.513,94.908C53.328,94.75 53.17,94.565 53.038,94.354C52.906,94.195 52.879,93.931 52.985,93.746C53.09,93.535 53.354,93.324 53.777,93.139C54.278,92.928 54.806,92.822 55.361,92.822C55.942,92.796 56.522,92.902 57.05,93.086L57.948,92.69L58.925,93.218L58.027,93.614C58.186,93.773 58.318,93.958 58.397,94.142Z" fill="#D46A00"/>
<path d="M54.067,99.343C49.949,99.343 46.596,97.337 46.596,94.855C46.596,92.374 49.949,90.367 54.067,90.367C58.186,90.367 61.538,92.374 61.538,94.855C61.538,97.337 58.186,99.343 54.067,99.343ZM54.067,90.895C50.239,90.895 47.124,92.664 47.124,94.855C47.124,97.046 50.239,98.815 54.067,98.815C57.895,98.815 61.01,97.046 61.01,94.855C61.01,92.664 57.895,90.922 54.067,90.895Z" fill="#D46A00"/>
<path d="M54.041,99.158C58.779,99.158 62.621,96.913 62.621,94.142C62.621,91.372 58.779,89.126 54.041,89.126C49.302,89.126 45.461,91.372 45.461,94.142C45.461,96.913 49.302,99.158 54.041,99.158Z" fill="#D46A00"/>
<path d="M45.461,94.142L45.461,92.69L46.385,93.852L45.461,94.142Z" fill="#D46A00"/>
<path d="M62.621,92.69L62.621,94.142L61.538,94.142L62.33,92.954L62.621,92.69Z" fill="#D46A00"/>
<path d="M54.041,97.706C58.779,97.706 62.621,95.461 62.621,92.69C62.621,89.92 58.779,87.674 54.041,87.674C49.302,87.674 45.461,89.92 45.461,92.69C45.461,95.461 49.302,97.706 54.041,97.706Z" fill="#FFD008"/>
<path d="M58.397,92.004C58.45,92.11 58.476,92.242 58.476,92.374L58.45,92.506L56.892,92.506C56.918,92.453 56.918,92.426 56.918,92.374C56.918,92.268 56.892,92.162 56.813,92.083C56.734,91.925 56.602,91.819 56.443,91.74C56.206,91.634 55.968,91.555 55.704,91.555C55.466,91.529 55.229,91.582 55.018,91.661C54.806,91.766 54.727,91.872 54.754,92.03C54.833,92.215 54.938,92.374 55.097,92.532C55.255,92.717 55.414,92.875 55.572,93.086C55.704,93.245 55.757,93.482 55.651,93.694C55.572,93.905 55.308,94.116 54.886,94.274C54.358,94.486 53.803,94.618 53.222,94.618C52.615,94.644 51.982,94.538 51.401,94.354L50.503,94.776L49.447,94.274L50.318,93.905C50.16,93.799 50.028,93.667 49.896,93.535C49.817,93.43 49.738,93.324 49.685,93.192C49.658,93.113 49.632,93.007 49.632,92.902C49.632,92.822 49.632,92.77 49.632,92.69L49.658,92.611L51.216,92.611C51.19,92.664 51.19,92.717 51.19,92.77C51.19,92.902 51.242,93.034 51.322,93.139C51.454,93.324 51.638,93.482 51.85,93.588C52.14,93.72 52.43,93.799 52.747,93.826C53.038,93.852 53.328,93.799 53.592,93.694C53.803,93.588 53.882,93.482 53.83,93.324C53.75,93.139 53.645,92.981 53.486,92.822C53.302,92.664 53.143,92.479 53.011,92.268C52.879,92.11 52.853,91.872 52.958,91.661C53.064,91.45 53.328,91.238 53.75,91.054C54.252,90.842 54.78,90.737 55.334,90.737C55.915,90.71 56.496,90.816 57.024,91.001L57.922,90.605L58.898,91.133L58.001,91.529C58.159,91.634 58.318,91.819 58.397,92.004Z" fill="#D46A00"/>
<path d="M54.067,97.759C49.579,97.759 46.068,95.568 46.068,92.743C46.068,89.918 49.579,87.727 54.067,87.727C58.555,87.727 62.066,89.918 62.066,92.743C62.066,95.568 58.529,97.759 54.067,97.759ZM54.067,89.311C50.582,89.311 47.652,90.895 47.652,92.743C47.652,94.591 50.582,96.175 54.067,96.175C57.552,96.175 60.482,94.591 60.482,92.743C60.482,90.895 57.526,89.311 54.067,89.311Z" fill="#D46A00"/>
<path d="M54.041,95.198C58.779,95.198 62.621,92.953 62.621,90.182C62.621,87.412 58.779,85.166 54.041,85.166C49.302,85.166 45.461,87.412 45.461,90.182C45.461,92.953 49.302,95.198 54.041,95.198Z" fill="#D46A00"/>
<path d="M45.461,90.182L45.461,88.73L46.385,89.892L45.461,90.182Z" fill="#D46A00"/>
<path d="M62.621,88.73L62.621,90.182L61.538,90.182L62.33,89.021L62.621,88.73Z" fill="#D46A00"/>
<path d="M54.041,93.746C58.779,93.746 62.621,91.501 62.621,88.73C62.621,85.96 58.779,83.714 54.041,83.714C49.302,83.714 45.461,85.96 45.461,88.73C45.461,91.501 49.302,93.746 54.041,93.746Z" fill="#FFD008"/>
<path d="M58.397,88.07C58.45,88.176 58.476,88.308 58.476,88.44L58.45,88.572L56.892,88.572C56.918,88.519 56.918,88.493 56.918,88.44C56.918,88.334 56.892,88.229 56.813,88.15C56.734,87.991 56.602,87.886 56.443,87.806C56.206,87.674 55.968,87.622 55.704,87.622C55.466,87.595 55.229,87.648 55.018,87.727C54.806,87.833 54.727,87.938 54.754,88.097C54.833,88.282 54.938,88.44 55.097,88.598C55.255,88.783 55.414,88.942 55.572,89.153C55.704,89.311 55.757,89.549 55.651,89.76C55.572,89.971 55.308,90.182 54.886,90.341C54.358,90.552 53.803,90.684 53.222,90.684C52.615,90.71 51.982,90.605 51.401,90.42L50.503,90.816L49.447,90.288L50.318,89.918C50.16,89.813 50.028,89.681 49.896,89.549C49.738,89.364 49.632,89.153 49.632,88.915C49.632,88.836 49.632,88.783 49.658,88.704L49.685,88.625L51.242,88.625C51.216,88.678 51.216,88.73 51.216,88.783C51.216,88.915 51.269,89.047 51.348,89.153C51.48,89.338 51.665,89.496 51.876,89.602C52.166,89.734 52.457,89.839 52.774,89.839C53.064,89.866 53.354,89.813 53.618,89.707C53.83,89.602 53.909,89.496 53.856,89.338C53.777,89.153 53.671,88.994 53.513,88.836C53.328,88.678 53.17,88.493 53.038,88.282C52.906,88.097 52.879,87.859 52.985,87.674C53.09,87.463 53.354,87.252 53.777,87.067C54.278,86.856 54.806,86.75 55.361,86.75C55.942,86.724 56.522,86.83 57.05,87.014L57.948,86.618L58.925,87.146L58.027,87.542C58.186,87.701 58.318,87.859 58.397,88.07Z" fill="#D46A00"/>
<path d="M54.067,93.271C49.949,93.271 46.596,91.265 46.596,88.783C46.596,86.302 49.949,84.295 54.067,84.295C58.186,84.295 61.512,86.328 61.512,88.783C61.512,91.238 58.186,93.271 54.067,93.271ZM54.067,84.823C50.239,84.823 47.124,86.592 47.124,88.783C47.124,90.974 50.239,92.743 54.067,92.743C57.895,92.743 61.01,90.974 61.01,88.783C61.01,86.592 57.869,84.85 54.067,84.823Z" fill="#D46A00"/>
<path d="M50.688,90.895C55.427,90.895 59.268,88.649 59.268,85.879C59.268,83.109 55.427,80.863 50.688,80.863C45.949,80.863 42.108,83.109 42.108,85.879C42.108,88.649 45.949,90.895 50.688,90.895Z" fill="#D46A00"/>
<path d="M42.108,85.879L42.108,84.427L43.032,85.589L42.108,85.879Z" fill="#D46A00"/>
<path d="M59.268,84.427L59.268,85.879L58.186,85.879L58.978,84.718L59.268,84.427Z" fill="#D46A00"/>
<path d="M50.688,89.443C55.427,89.443 59.268,87.197 59.268,84.427C59.268,81.657 55.427,79.411 50.688,79.411C45.949,79.411 42.108,81.657 42.108,84.427C42.108,87.197 45.949,89.443 50.688,89.443Z" fill="#FFD008"/>
<path d="M55.044,83.767C55.097,83.873 55.123,84.031 55.123,84.163L55.097,84.295L53.539,84.295C53.539,84.242 53.566,84.216 53.566,84.163C53.566,84.058 53.539,83.952 53.46,83.873C53.381,83.714 53.249,83.609 53.09,83.53C52.853,83.398 52.615,83.345 52.351,83.345C52.114,83.318 51.876,83.371 51.665,83.45C51.454,83.556 51.374,83.662 51.401,83.82C51.48,84.005 51.586,84.163 51.744,84.322C51.902,84.506 52.061,84.665 52.219,84.876C52.351,85.034 52.404,85.272 52.298,85.483C52.219,85.694 51.955,85.906 51.533,86.064C51.005,86.275 50.45,86.407 49.87,86.407C49.262,86.434 48.629,86.328 48.048,86.143L47.15,86.539L46.094,86.011L46.966,85.642C46.807,85.536 46.675,85.404 46.543,85.272C46.464,85.166 46.385,85.061 46.332,84.929C46.306,84.823 46.279,84.744 46.279,84.638C46.279,84.559 46.279,84.506 46.306,84.427L46.332,84.348L47.89,84.348C47.863,84.401 47.863,84.454 47.863,84.506C47.863,84.638 47.916,84.77 47.995,84.876C48.127,85.061 48.312,85.219 48.523,85.325C48.814,85.457 49.104,85.562 49.421,85.562C49.711,85.589 50.002,85.536 50.266,85.43C50.477,85.325 50.556,85.219 50.503,85.061C50.424,84.876 50.318,84.718 50.16,84.559C49.975,84.401 49.817,84.216 49.685,84.005C49.553,83.846 49.526,83.609 49.606,83.398C49.711,83.186 49.975,82.975 50.398,82.79C50.899,82.579 51.427,82.474 51.982,82.474C52.562,82.447 53.143,82.553 53.671,82.738L54.569,82.342L55.546,82.87L54.648,83.266C54.806,83.371 54.965,83.556 55.044,83.767Z" fill="#D46A00"/>
<path d="M50.714,88.968C46.596,88.968 43.243,86.962 43.243,84.48C43.243,81.998 46.596,79.992 50.714,79.992C54.833,79.992 58.186,81.998 58.186,84.48C58.186,86.962 54.806,88.968 50.714,88.968ZM50.714,80.52C46.886,80.52 43.771,82.289 43.771,84.48C43.771,86.671 46.886,88.44 50.714,88.44C54.542,88.44 57.658,86.671 57.658,84.48C57.658,82.289 54.516,80.546 50.714,80.52Z" fill="#D46A00"/>
</svg>
