<svg width="132" height="132" viewBox="0 0 132 132" fill="none" xmlns="http://www.w3.org/2000/svg" xmlns:xlink="http://www.w3.org/1999/xlink">
<path d="M63.307,103.646L4.435,68.851C2.561,67.795 0.95,66.079 2.772,64.944L61.855,30.888C62.753,30.334 64.073,29.99 64.997,30.492L126.799,66.37C128.674,67.452 129.017,70.488 127.142,71.597L71.069,103.594C68.666,104.993 65.736,105.019 63.307,103.646Z" fill="#C5A8EB"/>
<path d="M94.961,25.45L70.778,11.722C70.303,11.458 69.722,11.458 69.247,11.722L67.584,12.566L68.429,12.804C68.402,12.883 68.402,12.989 68.402,13.068L67.927,61.618C67.901,63.017 68.666,64.284 69.854,64.97L94.142,78.672C94.195,78.698 94.248,78.725 94.301,78.751L94.01,79.517L95.542,78.778C95.647,78.725 95.726,78.698 95.832,78.619C96.281,78.329 96.545,77.827 96.545,77.299L96.545,28.142C96.518,27.034 95.938,26.004 94.961,25.45Z" fill="#3CAC6E"/>
<g opacity="0.21">
<path d="M94.961,25.45L70.778,11.722C70.303,11.458 69.722,11.458 69.247,11.722L67.584,12.566L68.429,12.804C68.402,12.883 68.402,12.989 68.402,13.068L67.927,61.618C67.901,63.017 68.666,64.284 69.854,64.97L94.142,78.672C94.195,78.698 94.248,78.725 94.301,78.751L94.01,79.517L95.542,78.778C95.647,78.725 95.726,78.698 95.832,78.619C96.281,78.329 96.545,77.827 96.545,77.299L96.545,28.142C96.518,27.034 95.938,26.004 94.961,25.45Z" fill="#000000"/>
</g>
<path d="M68.323,65.71L92.611,79.411C93.377,79.86 94.327,79.596 94.776,78.83C94.908,78.593 94.987,78.302 94.987,78.012L94.987,28.882C94.987,27.773 94.38,26.743 93.43,26.189L69.247,12.461C68.482,12.012 67.531,12.276 67.082,13.042C66.95,13.279 66.871,13.543 66.871,13.834L66.396,62.383C66.396,63.756 67.135,65.05 68.323,65.71Z" fill="#3CAC6E"/>
<path d="M68.112,62.806L93.034,76.903L93.034,30.122L68.534,16.21L68.112,62.806Z" fill="#E2F2EE"/>
<path d="M74.342,56.311C74.738,55.625 75.61,55.387 76.296,55.757L84.797,60.562C85.483,60.958 85.721,61.829 85.351,62.515C84.955,63.202 84.084,63.439 83.398,63.07L74.897,58.265C74.184,57.869 73.946,56.998 74.342,56.311Z" fill="#FF6161"/>
<path d="M24.763,54.569L25.819,59.506C25.898,59.849 26.11,60.113 26.4,60.271C27.007,60.562 28.274,60.878 30.703,60.456C31.152,60.377 31.495,60.034 31.601,59.611L32.683,54.595Z" fill="#3CAC6E"/>
<path d="M28.723,56.179C30.91,56.179 32.683,55.458 32.683,54.569C32.683,53.679 30.91,52.958 28.723,52.958C26.536,52.958 24.763,53.679 24.763,54.569C24.763,55.458 26.536,56.179 28.723,56.179Z" fill="#56403D"/>
<path d="M26.426,50.926C26.242,50.82 26.083,50.688 25.978,50.503L23.76,47.045C22.73,45.434 22.361,33.977 25.054,33.845C27.192,33.739 29.41,38.755 30.175,40.234C30.888,41.606 31.68,43.085 32.102,44.563C32.762,46.834 31.284,48.814 29.885,50.609C29.198,51.454 27.298,51.427 26.426,50.926Z" fill="#49B230"/>
<path d="M27.746,53.17C28.037,53.381 28.354,53.592 28.618,53.83C28.855,48.708 28.142,43.613 26.532,38.755C26.347,38.201 25.476,38.465 25.661,39.019C27.166,43.586 27.878,48.391 27.746,53.17Z" fill="#56403D"/>
<path d="M30.888,50.002C30.835,49.87 30.809,49.738 30.835,49.606L31.152,46.992C31.284,45.778 35.772,39.996 37.171,41.026C38.28,41.844 37.33,45.223 37.092,46.253C36.907,47.256 36.643,48.233 36.274,49.183C35.666,50.556 34.162,50.926 32.736,51.242C32.05,51.401 31.126,50.609 30.888,50.002Z" fill="#49B230"/>
<g opacity="0.21">
<path d="M30.888,50.002C30.835,49.87 30.809,49.738 30.835,49.606L31.152,46.992C31.284,45.778 35.772,39.996 37.171,41.026C38.28,41.844 37.33,45.223 37.092,46.253C36.907,47.256 36.643,48.233 36.274,49.183C35.666,50.556 34.162,50.926 32.736,51.242C32.05,51.401 31.126,50.609 30.888,50.002Z" fill="#000000"/>
</g>
<path d="M35.006,44.194C33,47.573 31.416,51.163 30.254,54.886C30.492,55.018 30.703,55.15 30.914,55.308C32.076,51.559 33.66,47.942 35.666,44.537C35.93,44.141 35.244,43.798 35.006,44.194Z" fill="#56403D"/>
<path d="M61.459,32.551L56.232,29.594C56.126,29.542 55.994,29.542 55.889,29.594L55.519,29.779L55.704,29.832C55.704,29.858 55.704,29.858 55.704,29.885L55.598,40.366C55.598,40.656 55.757,40.946 56.021,41.078L61.274,44.035C61.274,44.035 61.301,44.035 61.301,44.062L61.248,44.22L61.565,44.062C61.591,44.062 61.618,44.035 61.618,44.035C61.723,43.982 61.776,43.877 61.776,43.745L61.776,33.106C61.802,32.894 61.67,32.657 61.459,32.551Z" fill="#4E62D4"/>
<path d="M55.704,41.263L60.958,44.22C61.116,44.326 61.327,44.246 61.433,44.088C61.459,44.035 61.486,43.982 61.486,43.93L61.486,33.317C61.486,33.079 61.354,32.842 61.142,32.736L55.915,29.779C55.757,29.674 55.546,29.753 55.44,29.911C55.414,29.964 55.387,30.017 55.387,30.07L55.282,40.55C55.282,40.841 55.44,41.105 55.704,41.263Z" fill="#3CAC6E"/>
<path d="M55.651,40.63L61.037,43.666L61.037,33.554L55.757,30.571L55.651,40.63Z" fill="#000000"/>
<path d="M55.678,36.934C55.255,37.118 54.886,37.462 54.648,37.858L54.622,37.884C53.988,38.412 53.882,39.362 53.196,39.838C53.196,39.864 52.562,40.313 52.562,40.313L52.615,39.442C52.404,40.049 52.193,40.656 51.982,41.263C52.008,41.29 52.034,41.29 52.087,41.316L52.008,41.342C51.982,41.342 51.955,41.369 51.955,41.369C51.929,41.422 51.902,41.474 51.823,41.501C51.744,41.765 51.902,42.029 52.166,42.108C52.272,42.134 52.404,42.134 52.51,42.082L54.569,41.078C54.833,41.026 55.097,40.946 55.361,40.841C55.387,40.63 55.387,40.418 55.414,40.207C55.73,39.706 55.783,39.072 55.546,38.518C55.546,38.491 55.572,38.491 55.572,38.491L55.572,38.465C55.915,38.227 56.153,37.858 56.206,37.435C56.285,37.171 55.994,36.775 55.678,36.934Z" fill="#F7931E"/>
<path d="M49.579,81.972L49.579,83.82C49.579,83.82 53.513,82.368 54.252,83.002C55.387,83.978 52.14,85.906 48.84,86.566C48.233,86.698 47.494,86.83 46.886,86.618C45.91,86.275 46.332,84.797 46.332,84.031C46.332,83.266 46.306,82.421 46.279,81.629Z" fill="#56403D"/>
<path d="M55.308,84.559L55.308,86.407C55.308,86.407 59.242,84.955 59.981,85.589C61.116,86.566 57.895,88.493 54.569,89.153C53.962,89.285 53.222,89.417 52.615,89.206C51.638,88.862 52.061,87.384 52.061,86.618C52.061,85.853 52.034,85.008 52.008,84.216Z" fill="#56403D"/>
<path d="M55.387,51.797C55.387,51.797 59.11,76.798 58.687,82.606C58.687,82.606 57.71,86.486 49.342,85.193C49.342,85.193 48.602,82.289 48.946,77.378C49.289,72.468 50.16,51.797 50.16,51.797L55.387,51.797Z" fill="#FF6161"/>
<path d="M53.328,81.338L52.061,51.48L46.411,50.952C46.411,50.952 44.801,58.687 45.276,62.41C45.751,66.132 44.722,71.042 44.458,73.63C44.246,75.953 44.141,79.939 44.959,81.734C47.705,82.553 50.635,82.289 53.328,81.338Z" fill="#FF6161"/>
<path d="M53.064,38.887C53.064,38.887 55.414,40.339 55.651,41.554C55.651,41.554 54.014,45.118 54.12,45.276C55.968,47.705 50.398,43.745 50.398,43.745C50.398,43.745 51.533,40.339 53.064,38.887Z" fill="#3CAC6E"/>
<path d="M58.37,39.758C58.555,41.369 56.496,43.613 55.625,44.062C54.437,44.642 53.962,39.706 48.734,39.732C48.391,39.732 46.702,39.019 45.804,41.237C44.906,43.454 45.804,49.87 46.411,50.978C46.939,51.955 50.424,54.331 55.414,51.797L55.493,49.5C55.493,49.5 58.423,49.447 60.007,47.282C61.459,45.276 62.33,42.24 62.172,40.735C60.984,40.234 59.532,39.389 58.37,39.758Z" fill="#3CAC6E"/>
<path d="M53.064,38.887C53.064,38.887 55.414,40.339 55.651,41.554C55.651,41.554 54.014,45.118 54.12,45.276C55.968,47.705 50.398,43.745 50.398,43.745C50.398,43.745 51.533,40.339 53.064,38.887Z" fill="#4E62D4"/>
<path d="M62.621,37.805C62.568,37.541 62.304,37.382 62.04,37.435C62.014,37.435 61.987,37.435 61.961,37.462C61.934,37.33 61.855,37.224 61.75,37.145C61.591,37.013 61.354,37.013 61.195,37.118C61.142,37.145 61.09,37.198 61.063,37.224L61.037,37.198C60.905,37.039 60.667,36.986 60.482,37.039C60.43,37.066 60.377,37.092 60.324,37.145C60.271,36.854 60.192,36.59 60.113,36.3C60.034,36.01 59.902,35.508 59.558,35.455C59.347,35.402 59.242,35.587 59.189,35.772C59.136,35.904 59.136,36.062 59.162,36.194C59.189,36.379 59.215,36.564 59.242,36.749C59.268,37.013 59.294,37.277 59.321,37.541C59.268,37.541 59.242,37.567 59.189,37.594C58.846,37.831 58.714,38.28 58.846,38.676C59.004,39.23 59.189,39.758 59.453,40.26C59.506,40.339 59.611,40.392 59.69,40.339L59.717,40.445C59.743,40.55 59.849,40.603 59.954,40.603C60.034,40.577 60.086,40.524 60.113,40.445L60.113,40.418C60.139,40.445 60.166,40.445 60.166,40.445L60.192,40.656C60.218,40.841 60.509,40.841 60.562,40.682C60.562,40.735 60.562,40.788 60.588,40.841C60.614,41.052 60.958,41.026 60.958,40.814C60.958,40.762 60.958,40.709 60.958,40.656C61.01,40.656 61.09,40.63 61.116,40.577C61.142,40.63 61.195,40.656 61.248,40.656C61.301,40.709 61.38,40.709 61.433,40.682L61.433,40.735C61.459,40.841 61.591,40.92 61.697,40.867C61.697,40.894 61.697,40.92 61.697,40.92C61.697,41.158 62.093,41.184 62.066,40.946C62.066,40.445 62.04,39.97 62.04,39.468C62.066,39.468 62.093,39.442 62.093,39.415C62.462,39.019 62.806,38.359 62.621,37.805ZM60.562,37.435C60.588,37.409 60.641,37.409 60.667,37.409C60.667,37.435 60.641,37.435 60.641,37.462L60.535,37.462C60.535,37.435 60.535,37.435 60.562,37.435Z" fill="#F7931E"/>
<path d="M51.533,33.845C51.533,33.898 51.85,37.171 51.11,37.884C50.371,38.597 48.444,38.306 47.942,37.514C47.441,36.722 46.86,35.693 47.388,34.478C47.916,33.264 51.427,33.026 51.533,33.845Z" fill="#F7931E"/>
<path d="M60.377,36.96C60.166,37.33 60.06,37.752 60.113,38.148C60.139,38.306 60.377,38.254 60.377,38.095C60.324,37.752 60.403,37.382 60.588,37.092C60.694,36.96 60.482,36.828 60.377,36.96Z" fill="#000000"/>
<path d="M48.998,82.843C48.602,80.969 48.312,79.068 48.154,77.167C48.074,76.243 48.074,75.293 48.127,74.369C48.206,73.418 48.338,72.468 48.523,71.518C48.814,69.828 48.893,68.086 48.761,66.396C48.629,64.627 48.365,62.885 48.206,61.142C48.022,59.162 47.969,57.156 48.391,55.202C48.444,54.938 48.048,54.833 47.995,55.097C47.203,58.608 47.969,62.146 48.286,65.657C48.497,67.478 48.444,69.3 48.18,71.095C48.022,71.993 47.863,72.864 47.758,73.735C47.652,74.686 47.652,75.662 47.705,76.613C47.81,78.751 48.206,80.837 48.602,82.922C48.655,83.186 49.025,83.081 48.998,82.843Z" fill="#FFFFFF"/>
<path d="M58.37,39.758C58.555,41.369 56.496,43.613 55.625,44.062C54.437,44.642 53.962,39.706 48.734,39.732C48.391,39.732 46.702,39.019 45.804,41.237C44.906,43.454 45.804,49.87 46.411,50.978C46.939,51.955 50.424,54.331 55.414,51.797L55.493,49.5C55.493,49.5 58.423,49.447 60.007,47.282C61.459,45.276 62.33,42.24 62.172,40.735C60.984,40.234 59.532,39.389 58.37,39.758Z" fill="#4E62D4"/>
<path d="M57.974,48.919C55.176,49.922 52.061,48.893 50.424,46.411C50.318,46.253 50.054,46.411 50.16,46.57C51.876,49.157 55.123,50.239 58.054,49.21C58.238,49.157 58.159,48.866 57.974,48.919Z" fill="#FFFFFF"/>
<path d="M55.018,43.507C54.754,42.874 54.358,42.319 53.856,41.87C53.275,41.342 52.589,41.026 51.982,40.524C51.876,40.418 51.691,40.603 51.823,40.682C52.378,41.131 53.038,41.474 53.592,41.923C54.12,42.372 54.542,42.953 54.806,43.586C54.886,43.771 55.097,43.666 55.018,43.507Z" fill="#FFFFFF"/>
<path d="M51.586,34.294L50.556,34.848C50.556,34.848 51.374,37.91 51.612,38.729C51.85,39.547 50.873,40.656 47.731,40.735C44.59,40.814 44.748,36.062 45.461,34.294C46.174,32.525 48.365,31.706 50.134,32.208C51.137,32.393 51.77,33.317 51.586,34.294Z" fill="#56403D"/>
<path d="M73.42,42.397C73.42,38.132 76.907,34.675 81.207,34.675C85.507,34.675 88.993,38.132 88.993,42.397C88.993,46.662 85.507,50.119 81.207,50.119C76.907,50.119 73.42,46.662 73.42,42.397ZM80.373,41.255C81.289,40.801 82.319,41.621 82.071,42.606L81.505,44.852L81.538,44.836C81.834,44.689 82.194,44.808 82.342,45.101C82.49,45.395 82.37,45.752 82.074,45.898L82.041,45.915C81.125,46.369 80.095,45.549 80.343,44.564L80.909,42.318L80.876,42.334C80.58,42.481 80.22,42.362 80.072,42.069C79.924,41.775 80.044,41.419 80.34,41.272L80.373,41.255ZM81.207,40.021C81.538,40.021 81.806,39.755 81.806,39.427C81.806,39.099 81.538,38.833 81.207,38.833C80.876,38.833 80.608,39.099 80.608,39.427C80.608,39.755 80.876,40.021 81.207,40.021Z" clip-rule="evenodd" fill-rule="evenodd" transform="rotate(21.763 81.207 42.397)" fill="#3CAC6E"/>
</svg>
