<svg width="40" height="40" viewBox="0 0 40 40" fill="none" xmlns="http://www.w3.org/2000/svg" xmlns:xlink="http://www.w3.org/1999/xlink">
<path d="M0.705,19.839C0.705,9.142 9.377,0.47 20.074,0.47C30.771,0.47 39.443,9.142 39.443,19.839C39.443,30.536 30.771,39.208 20.074,39.208C9.377,39.208 0.705,30.536 0.705,19.839ZM18,16.975C20.278,15.837 22.841,17.893 22.224,20.363L20.816,25.997L20.898,25.956C21.634,25.588 22.529,25.886 22.897,26.622C23.265,27.358 22.967,28.253 22.231,28.621L22.148,28.662C19.871,29.801 17.307,27.744 17.925,25.274L19.333,19.64L19.251,19.682C18.515,20.05 17.62,19.751 17.252,19.015C16.884,18.279 17.182,17.384 17.918,17.016L18,16.975ZM20.074,13.879C20.897,13.879 21.564,13.212 21.564,12.389C21.564,11.566 20.897,10.899 20.074,10.899C19.251,10.899 18.584,11.566 18.584,12.389C18.584,13.212 19.251,13.879 20.074,13.879Z" clip-rule="evenodd" fill-rule="evenodd" fill="#C4C4C4"/>
</svg>
