<svg width="36" height="36" viewBox="0 0 36 36" fill="none" xmlns="http://www.w3.org/2000/svg" xmlns:xlink="http://www.w3.org/1999/xlink">
<path d="M2.796,-0.04C0.898,-0.04 -0.641,1.627 -0.641,3.685L-0.641,29.758C-0.641,33.05 1.821,35.718 4.858,35.718L32.352,35.718C29.315,35.718 26.853,33.05 26.853,29.758L26.853,3.685C26.853,1.627 25.315,-0.04 23.417,-0.04L2.796,-0.04ZM17.23,13.369C16.471,13.369 15.856,14.036 15.856,14.859C15.856,15.682 16.471,16.349 17.23,16.349L19.98,16.349C20.739,16.349 21.355,15.682 21.355,14.859C21.355,14.036 20.739,13.369 19.98,13.369L17.23,13.369ZM15.856,8.899C15.856,8.076 16.471,7.409 17.23,7.409L19.98,7.409C20.739,7.409 21.355,8.076 21.355,8.899C21.355,9.722 20.739,10.389 19.98,10.389L17.23,10.389C16.471,10.389 15.856,9.722 15.856,8.899ZM6.233,19.329C5.474,19.329 4.858,19.996 4.858,20.819C4.858,21.642 5.474,22.309 6.233,22.309L19.98,22.309C20.739,22.309 21.355,21.642 21.355,20.819C21.355,19.996 20.739,19.329 19.98,19.329L6.233,19.329ZM4.858,26.778C4.858,25.956 5.474,25.288 6.233,25.288L19.98,25.288C20.739,25.288 21.355,25.956 21.355,26.778C21.355,27.601 20.739,28.268 19.98,28.268L6.233,28.268C5.474,28.268 4.858,27.601 4.858,26.778ZM6.233,7.409C5.474,7.409 4.858,8.076 4.858,8.899L4.858,14.859C4.858,15.682 5.474,16.349 6.233,16.349L11.732,16.349C12.491,16.349 13.106,15.682 13.106,14.859L13.106,8.899C13.106,8.076 12.491,7.409 11.732,7.409L6.233,7.409Z" clip-rule="evenodd" fill-rule="evenodd" fill="#3CAC6E"/>
<path d="M29.603,7.409L33.04,7.409C34.178,7.409 35.102,8.41 35.102,9.644L35.102,29.758C35.102,31.404 33.871,32.738 32.352,32.738C30.834,32.738 29.603,31.404 29.603,29.758L29.603,7.409Z" fill="#3CAC6E"/>
</svg>
