<svg width="48" height="44" viewBox="0 0 48 44" fill="none" xmlns="http://www.w3.org/2000/svg" xmlns:xlink="http://www.w3.org/1999/xlink">
<path d="M46,7.5C46.828,7.5 47.5,6.828 47.5,6C47.5,5.172 46.828,4.5 46,4.5L46,7.5ZM2,4.5C1.172,4.5 0.5,5.172 0.5,6C0.5,6.828 1.172,7.5 2,7.5L2,4.5ZM12,6L13.5,6L12,6ZM16,10L16,8.5L16,10ZM16,2L16,0.5L16,2ZM46,39.5C46.828,39.5 47.5,38.828 47.5,38C47.5,37.172 46.828,36.5 46,36.5L46,39.5ZM2,36.5C1.172,36.5 0.5,37.172 0.5,38C0.5,38.828 1.172,39.5 2,39.5L2,36.5ZM12,38L13.5,38L12,38ZM16,42L16,40.5L16,42ZM16,34L16,32.5L16,34ZM46,23.5C46.828,23.5 47.5,22.828 47.5,22C47.5,21.172 46.828,20.5 46,20.5L46,23.5ZM2,20.5C1.172,20.5 0.5,21.172 0.5,22C0.5,22.828 1.172,23.5 2,23.5L2,20.5ZM28,22L29.5,22L28,22ZM32,26L32,24.5L32,26ZM32,18L32,16.5L32,18ZM20,7.5L46,7.5L46,4.5L20,4.5L20,7.5ZM2,7.5L12,7.5L12,4.5L2,4.5L2,7.5ZM18.5,6C18.5,7.381 17.381,8.5 16,8.5L16,11.5C19.038,11.5 21.5,9.038 21.5,6L18.5,6ZM16,8.5C14.619,8.5 13.5,7.381 13.5,6L10.5,6C10.5,9.038 12.962,11.5 16,11.5L16,8.5ZM13.5,6C13.5,4.619 14.619,3.5 16,3.5L16,0.5C12.962,0.5 10.5,2.962 10.5,6L13.5,6ZM16,3.5C17.381,3.5 18.5,4.619 18.5,6L21.5,6C21.5,2.962 19.038,0.5 16,0.5L16,3.5ZM20,39.5L46,39.5L46,36.5L20,36.5L20,39.5ZM2,39.5L12,39.5L12,36.5L2,36.5L2,39.5ZM18.5,38C18.5,39.381 17.381,40.5 16,40.5L16,43.5C19.038,43.5 21.5,41.038 21.5,38L18.5,38ZM16,40.5C14.619,40.5 13.5,39.381 13.5,38L10.5,38C10.5,41.038 12.962,43.5 16,43.5L16,40.5ZM13.5,38C13.5,36.619 14.619,35.5 16,35.5L16,32.5C12.962,32.5 10.5,34.962 10.5,38L13.5,38ZM16,35.5C17.381,35.5 18.5,36.619 18.5,38L21.5,38C21.5,34.962 19.038,32.5 16,32.5L16,35.5ZM36,23.5L46,23.5L46,20.5L36,20.5L36,23.5ZM2,23.5L28,23.5L28,20.5L2,20.5L2,23.5ZM34.5,22C34.5,23.381 33.381,24.5 32,24.5L32,27.5C35.038,27.5 37.5,25.038 37.5,22L34.5,22ZM32,24.5C30.619,24.5 29.5,23.381 29.5,22L26.5,22C26.5,25.038 28.962,27.5 32,27.5L32,24.5ZM29.5,22C29.5,20.619 30.619,19.5 32,19.5L32,16.5C28.962,16.5 26.5,18.962 26.5,22L29.5,22ZM32,19.5C33.381,19.5 34.5,20.619 34.5,22L37.5,22C37.5,18.962 35.038,16.5 32,16.5L32,19.5Z" fill="#3CAC6E"/>
</svg>
