<svg width="38" height="40" viewBox="0 0 38 40" fill="none" xmlns="http://www.w3.org/2000/svg" xmlns:xlink="http://www.w3.org/1999/xlink">
<path d="M33.667,-0.027L4.333,-0.027C2.317,-0.027 0.685,1.761 0.685,3.947L0.667,39.706L8,31.759L33.667,31.759C35.683,31.759 37.333,29.971 37.333,27.786L37.333,3.947C37.333,1.761 35.683,-0.027 33.667,-0.027ZM8,13.88L30,13.88L30,17.853L8,17.853L8,13.88ZM22.667,23.813L8,23.813L8,19.84L22.667,19.84L22.667,23.813ZM30,11.893L8,11.893L8,7.92L30,7.92L30,11.893Z" fill="#C4C4C4"/>
</svg>
